<?xml version="1.0" encoding="utf-8"?>
<!-- Generator: Adobe Illustrator 26.0.1, SVG Export Plug-In . SVG Version: 6.00 Build 0)  -->
<svg version="1.1" id="Layer_1" xmlns="http://www.w3.org/2000/svg" xmlns:xlink="http://www.w3.org/1999/xlink" x="0px" y="0px"
	 viewBox="0 0 40 40" style="enable-background:new 0 0 40 40;" xml:space="preserve">
<path d="M24.9,21.8l1.5,1.5l0.2-0.2c0.3-0.3,0.7-0.3,1,0l11.5,11.5c0.6,0.6,0.9,1.4,0.9,2.3c0,0.8-0.3,1.6-0.9,2.3
	c-0.6,0.6-1.4,0.9-2.3,0.9c-0.8,0-1.6-0.3-2.3-0.9L23.1,27.6c-0.3-0.3-0.3-0.7,0-1l0.2-0.2l-1.5-1.5c-2.4,1.7-5.2,2.6-8,2.6
	c-3.5,0-7-1.3-9.7-4c-2.7-2.7-4-6.2-4-9.7c0-3.5,1.3-7,4-9.7c2.7-2.7,6.2-4,9.7-4c3.5,0,7,1.3,9.7,4c2.7,2.7,4,6.2,4,9.7
	C27.5,16.6,26.6,19.4,24.9,21.8L24.9,21.8z M7.2,7.2c-0.3,0.3-0.7,0.3-1,0c-0.3-0.3-0.3-0.7,0-1c2.1-2.1,4.8-3.1,7.5-3.1
	c2.7,0,5.5,1,7.5,3.1c0.3,0.3,0.3,0.7,0,1c-0.3,0.3-0.7,0.3-1,0c-1.8-1.8-4.2-2.7-6.5-2.7C11.4,4.5,9,5.4,7.2,7.2L7.2,7.2z
	 M26.9,24.8l-2.3,2.3L35.5,38c0.3,0.3,0.8,0.5,1.2,0.5c0.5,0,0.9-0.2,1.2-0.5c0.3-0.3,0.5-0.8,0.5-1.2c0-0.5-0.2-0.9-0.5-1.2
	L27.1,24.6L26.9,24.8L26.9,24.8z M13.7,1.4C10.6,1.4,7.4,2.6,5,5c-2.4,2.4-3.6,5.5-3.6,8.7c0,3.1,1.2,6.3,3.6,8.7
	c2.4,2.4,5.5,3.6,8.7,3.6c3.1,0,6.3-1.2,8.7-3.6c2.4-2.4,3.6-5.5,3.6-8.7c0-3.1-1.2-6.3-3.6-8.7C20,2.6,16.9,1.4,13.7,1.4L13.7,1.4z
	 M24,22.9L22.9,24l1.4,1.4l1.1-1.1L24,22.9L24,22.9z"/>
</svg>
