<?xml version="1.0" encoding="utf-8"?>
<!-- Generator: Adobe Illustrator 26.0.1, SVG Export Plug-In . SVG Version: 6.00 Build 0)  -->
<svg version="1.1" id="Layer_1" xmlns="http://www.w3.org/2000/svg" xmlns:xlink="http://www.w3.org/1999/xlink" x="0px" y="0px"
	 viewBox="0 0 34.9 51" style="enable-background:new 0 0 34.9 51;" xml:space="preserve">
<path d="M21.2,42.4c0,0.3-0.2,0.5-0.5,0.5h-8.1c-0.3,0-0.5-0.2-0.5-0.5c0-0.3,0.2-0.5,0.5-0.5h8.1C21,41.9,21.2,42.1,21.2,42.4z
	 M34.9,41.6C34.9,41.6,34.9,41.6,34.9,41.6l0-21.8c0-0.2-0.1-0.3-0.2-0.4l-0.1-0.1c0,0,0,0,0,0c-0.1,0-0.2-0.1-0.3,0
	c-4.3,0.9-5.9,5.4-6,5.6c0,0.1,0,0.1,0,0.2v11.8c0,0.2-0.1,0.4-0.3,0.4c-1,0.1-1.9,0.6-2.6,1.4c-2.2,2.5-1.9,7.3-1.9,7.9l0,0
	c0,0.1,0.1,0.3,0.2,0.4c0.1,0.1,0.2,0.1,0.4,0.1c0.1,0,0.3-0.1,0.4-0.2c0.1-0.1,0.1-0.2,0.1-0.4c0,0,0,0,0,0l0,0
	c-0.1-0.8-0.2-5,1.6-7c0.7-0.7,1.7-1.1,2.7-1.1c0.1,0,0.3-0.1,0.4-0.2c0.1-0.1,0.2-0.2,0.2-0.4V25.3c0-0.1,0-0.1,0-0.2
	c0.2-0.5,1.5-3.2,4-4.4c0.1,0,0.1,0,0.2,0c0.1,0,0.2,0,0.2,0.1c0.1,0.1,0.2,0.2,0.2,0.3v20.4c0,0,0,0,0,0.1
	c-0.2,0.9-1.1,5.7-4.6,8.5c-0.2,0.2-0.3,0.5-0.1,0.7c0.1,0.1,0.2,0.2,0.4,0.2c0.1,0,0.2,0,0.3-0.1C34.1,47.5,34.9,41.7,34.9,41.6
	C34.9,41.7,34.9,41.7,34.9,41.6C34.9,41.7,34.9,41.7,34.9,41.6z M29.2,2.1v18.5c0,0.3-0.2,0.5-0.5,0.5c-0.3,0-0.5-0.2-0.5-0.5V6.3
	c0-0.2-0.2-0.4-0.4-0.4H5.5c-0.2,0-0.4,0.2-0.4,0.4v16c0,0.3-0.2,0.5-0.5,0.5c0,0,0,0-0.1,0c0,0,0,0-0.1,0c-0.3,0-0.5-0.3-0.5-0.5
	V22c0-0.1-0.1-0.3-0.2-0.3c-0.1-0.1-0.3-0.1-0.4,0c-0.7,0.3-1.3,0.8-1.7,1.5c-0.5,0.7-0.7,1.5-0.7,2.4c0,2.4,3.8,4.6,6.1,4.6
	c1.1,0,1.7-0.4,1.7-1.3c0-2.8-4.3-4.1-4.5-4.1c-0.1,0-0.2-0.1-0.3-0.3C4,24.2,4,24.1,4,24c0-0.1,0.1-0.2,0.3-0.3
	c0.1,0,0.1-0.1,0.2-0.1c0,0,0,0,0.1,0c0,0,0,0,0.1,0c0,0,0.1,0,0.1,0c0.5,0.2,5.2,1.6,5.2,5.1v0c0,0.7-0.3,1.4-0.8,1.8
	c-0.1,0.1-0.1,0.2-0.1,0.3c0,0.1,0,0.2,0.1,0.3c0.6,0.7,0.9,1.6,0.9,2.5c0,0.7-0.3,1.4-0.8,1.8c-0.1,0.1-0.1,0.2-0.1,0.3
	c0,0.1,0,0.2,0.1,0.3c0.6,0.7,0.9,1.6,0.9,2.5c0,0.4-0.1,0.9-0.3,1.3c-0.1,0.1-0.1,0.3,0,0.4c0.2,0.5,0.4,1,0.4,1.6
	c0,0.7-0.2,1.2-0.6,1.6C8.8,43.7,8.1,44,7.2,44c0,0,0,0,0,0c-0.1,0-0.3,0-0.4,0c-0.1,0-0.3,0.1-0.3,0.2c-0.1,0.1-0.1,0.3,0,0.4
	c0.9,2.1,2.3,4.1,4.1,5.6c0,0,0,0,0,0c0.2,0.2,0.3,0.5,0.1,0.7c-0.1,0.1-0.2,0.2-0.4,0.2c-0.1,0-0.2,0-0.3-0.1
	c-2.3-1.9-4-4.4-4.9-7.2c0-0.1-0.1-0.2-0.2-0.2C2.5,42.6,0,40.7,0,38.4c0-0.6,0.1-1.2,0.3-1.7c0-0.1,0-0.2,0-0.3
	C0.1,36,0,35.6,0,35.2c0-0.9,0.2-1.7,0.6-2.5c0.1-0.1,0.1-0.3,0-0.4C0.2,31.7,0,31,0,30.3c0-0.9,0.2-1.7,0.6-2.5
	c0.1-0.1,0.1-0.3,0-0.4C0.2,26.9,0,26.2,0,25.5c0-1.2,0.4-2.3,1.1-3.2c0.7-0.9,1.6-1.6,2.7-1.9C3.9,20.3,4,20.2,4,20V2.1
	C4,1.6,4.3,1,4.7,0.6C5.1,0.2,5.6,0,6.2,0h20.9c0.6,0,1.1,0.2,1.5,0.6C29,1,29.2,1.6,29.2,2.1z M8.9,41.6c0-0.2,0-0.5-0.1-0.7
	c0-0.1-0.1-0.2-0.2-0.2c-0.1,0-0.2-0.1-0.3,0c-0.3,0.1-0.7,0.2-1.1,0.1c-2-0.1-4-0.9-5.5-2.3c-0.1-0.1-0.3-0.1-0.5,0
	c-0.1,0.1-0.2,0.3-0.2,0.4c0.5,2.3,4,4.1,6.1,4.1C8.3,42.9,8.9,42.5,8.9,41.6L8.9,41.6z M8.9,38.4C8.9,38.4,8.9,38.4,8.9,38.4
	c-0.1-1-0.5-1.8-1.3-2.3C7.5,36,7.4,36,7.3,36H7.2c-2-0.1-3.9-0.9-5.3-2.2c-0.1-0.1-0.2-0.1-0.4-0.1c-0.1,0-0.2,0.1-0.3,0.3
	c-0.1,0.4-0.2,0.8-0.2,1.2c0,2.4,3.8,4.6,6.1,4.6C8.3,39.7,8.9,39.3,8.9,38.4z M1.1,30.3c0,2.4,3.8,4.6,6.1,4.6
	c1.1,0,1.7-0.4,1.7-1.3c0,0,0,0,0,0c-0.1-0.9-0.5-1.8-1.3-2.3c-0.1-0.1-0.2-0.1-0.2-0.1l-0.2,0c-2-0.1-3.9-0.9-5.3-2.2
	c-0.1-0.1-0.2-0.1-0.4-0.1c-0.1,0-0.2,0.1-0.3,0.3C1.1,29.5,1,29.9,1.1,30.3z M28.2,2.1c0-0.3-0.1-0.6-0.3-0.8
	C27.7,1.2,27.4,1,27.1,1H6.2C5.6,1,5.1,1.5,5.1,2.1v2.3c0,0.2,0.2,0.4,0.4,0.4h22.3c0.2,0,0.4-0.2,0.4-0.4V2.1z M18.3,2.4H15
	c-0.3,0-0.5,0.2-0.5,0.5s0.2,0.5,0.5,0.5h3.2c0.3,0,0.5-0.2,0.5-0.5S18.5,2.4,18.3,2.4z M17.4,39.5h-1.6c-0.3,0-0.5,0.2-0.5,0.5
	c0,0.3,0.2,0.5,0.5,0.5h1.6c0.3,0,0.5-0.2,0.5-0.5C18,39.7,17.7,39.5,17.4,39.5z M23.1,37.1H11.8c-0.3,0-0.5,0.2-0.5,0.5
	c0,0.3,0.2,0.5,0.5,0.5h11.3c0.3,0,0.5-0.2,0.5-0.5C23.6,37.3,23.4,37.1,23.1,37.1z M12.9,27.4v1.1h4.3v-1.1H12.9z M19.3,27.4v1.1
	h1.1v-1.1H19.3z M16.1,30.6v1.1h4.3v-1.1H16.1z M12.9,30.6v1.1h1.1v-1.1H12.9z M19.3,17.2c0.4,0.7,0.4,1.5,0,2.1
	c-0.4,0.6-1,1-1.8,1.1c-0.2,0-0.4,0.2-0.4,0.4v0.7c0,0.3-0.2,0.5-0.5,0.5c-0.3,0-0.5-0.2-0.5-0.5v-0.7c0-0.2-0.2-0.4-0.4-0.4h-1.5
	c-0.3,0-0.5-0.2-0.5-0.5c0-0.3,0.2-0.5,0.5-0.5h1.5c0.2,0,0.4-0.2,0.4-0.4v-1.4c0-0.2-0.2-0.4-0.4-0.4c-0.7,0-1.4-0.4-1.8-1.1
	c-0.4-0.7-0.4-1.5,0-2.1c0.4-0.6,1-1,1.8-1.1c0.2,0,0.4-0.2,0.4-0.4v-0.7c0-0.3,0.2-0.5,0.5-0.5c0.3,0,0.5,0.2,0.5,0.5v0.7
	c0,0.2,0.2,0.4,0.4,0.4h1.5c0.3,0,0.5,0.2,0.5,0.5c0,0.3-0.2,0.5-0.5,0.5h-1.5c-0.2,0-0.4,0.2-0.4,0.4v1.4c0,0.2,0.2,0.4,0.4,0.4
	C18.3,16.1,18.9,16.6,19.3,17.2z M16.1,14.3c0-0.1-0.1-0.2-0.1-0.3c-0.1-0.1-0.2-0.1-0.3-0.1c-0.5,0.1-0.9,0.5-0.9,1.1
	c0,0.5,0.4,1,0.9,1.1c0,0,0,0,0.1,0c0.1,0,0.2,0,0.3-0.1c0.1-0.1,0.1-0.2,0.1-0.3V14.3z M18.5,18.2c0-0.3-0.1-0.6-0.3-0.8
	c-0.2-0.2-0.4-0.3-0.6-0.3c-0.1,0-0.2,0-0.3,0.1c-0.1,0.1-0.1,0.2-0.1,0.3v1.4c0,0.1,0.1,0.2,0.1,0.3c0.1,0.1,0.2,0.1,0.3,0.1
	c0,0,0,0,0.1,0c0.2,0,0.4-0.1,0.6-0.3C18.4,18.8,18.5,18.5,18.5,18.2z M25.2,16.6c0,2.3-0.9,4.4-2.5,6.1c-1.6,1.6-3.8,2.5-6.1,2.5
	c-2.3,0-4.4-0.9-6.1-2.5c-1.6-1.6-2.5-3.8-2.5-6.1s0.9-4.4,2.5-6.1c1.6-1.6,3.8-2.5,6.1-2.5c2.3,0,4.4,0.9,6.1,2.5
	C24.3,12.2,25.2,14.3,25.2,16.6z M24.2,16.6c0-2-0.8-3.9-2.2-5.3c-1.4-1.4-3.3-2.2-5.3-2.2c-2,0-3.9,0.8-5.3,2.2
	c-1.4,1.4-2.2,3.3-2.2,5.3s0.8,3.9,2.2,5.3c1.4,1.4,3.3,2.2,5.3,2.2c2,0,3.9-0.8,5.3-2.2C23.4,20.5,24.2,18.6,24.2,16.6z"/>
</svg>
