<?xml version="1.0" encoding="utf-8"?>
<!-- Generator: Adobe Illustrator 26.0.1, SVG Export Plug-In . SVG Version: 6.00 Build 0)  -->
<svg version="1.1" id="Layer_1" xmlns="http://www.w3.org/2000/svg" xmlns:xlink="http://www.w3.org/1999/xlink" x="0px" y="0px"
	 viewBox="0 0 39 52" style="enable-background:new 0 0 39 52;" xml:space="preserve">
<path d="M15.8,20.9v-2c0-0.3,0.3-0.6,0.6-0.6c0.3,0,0.6,0.3,0.6,0.6v2c0,0.3-0.3,0.6-0.6,0.6C16.1,21.5,15.8,21.2,15.8,20.9z
	 M22.6,21.5c0.3,0,0.6-0.3,0.6-0.6v-2c0-0.3-0.3-0.6-0.6-0.6s-0.6,0.3-0.6,0.6v2C22.1,21.2,22.3,21.5,22.6,21.5z M35.7,45.4
	c1.8,0,3.3,1.5,3.3,3.3c0,1.8-1.5,3.3-3.3,3.3H3.3C1.5,52,0,50.5,0,48.7c0-1.8,1.5-3.3,3.3-3.3h2.2c0-1.1,0.2-2.2,0.5-3.2l-0.8-0.6
	c-1.1-0.9-1.3-2.6-0.5-3.8l2.9-4.2c0.5-0.7,1.2-1.1,2-1.1c0.6,0,1.1,0.2,1.6,0.6l1.1,0.9c0.9-0.6,2-1,3-1.4
	c-1.9-0.5-3.5-1.4-4.7-2.6c-2.1-2.2-2.6-4.9-2.7-6.1c-2.3-2.3-3.2-4.1-2.7-5.3C5.6,17.4,7,17.1,7.8,17v-1.7l-4.9-1.3
	c-0.2-0.1-0.4-0.2-0.4-0.5c0-0.2,0.1-0.4,0.3-0.6c1.2-0.7,2.6-1.3,4.1-1.8V5.3c0-0.1,0-0.1,0-0.2c0-0.1,1.2-3.5,4.7-3.9L19.4,0
	c0,0,0.1,0,0.1,0c0,0,0.1,0,0.1,0l7.8,1.2c3.5,0.4,4.7,3.8,4.7,3.9c0,0,0,0.1,0,0.2v5.9c1.5,0.5,2.9,1.1,4.1,1.8
	c0.2,0.1,0.3,0.3,0.3,0.6c0,0.2-0.2,0.4-0.4,0.5l-4.9,1.3V17c0.8,0.1,2.2,0.4,2.7,1.5c0.5,1.3-0.3,3-2.7,5.3
	c-0.1,1.2-0.5,3.9-2.7,6.1c-1.2,1.3-2.8,2.1-4.7,2.6c1.1,0.3,2.1,0.8,3,1.4l1.1-0.9c0.5-0.4,1-0.6,1.6-0.6c0.8,0,1.6,0.4,2,1.1
	l2.9,4.2c0.8,1.2,0.6,2.9-0.5,3.8L33,42.2c0.3,1,0.5,2.1,0.5,3.2L35.7,45.4L35.7,45.4z M32.4,45.4c0-0.8-0.1-1.6-0.3-2.4l-0.6,0.5
	c-0.3,0.2-0.6,0.4-0.9,0.5c0.1,0.5,0.1,1,0.2,1.5L32.4,45.4L32.4,45.4z M23.3,45.4c-0.3-1.9-1.9-3.3-3.8-3.3s-3.6,1.4-3.8,3.3h3.8
	L23.3,45.4z M14.5,45.4c0.1-0.8,0.3-1.5,0.7-2.1l-2.9-1.6l-1.1,1.3c-0.4,0.5-1,0.9-1.7,0.9c-0.1,0.4-0.1,0.9-0.2,1.4L14.5,45.4z
	 M13.1,40.9l2.9,1.6c0.9-0.9,2.2-1.5,3.5-1.5c1.4,0,2.6,0.6,3.5,1.5l2.9-1.6l-1.4-1.7C24.2,38.7,24,38,24,37.3c0-0.1,0-0.3,0.1-0.4
	c-1.4-0.7-3-1.1-4.6-1.1c-1.6,0-3.2,0.4-4.6,1.1c0,0.1,0.1,0.2,0.1,0.4c0.1,0.7-0.1,1.4-0.6,1.9L13.1,40.9z M29.7,45.4
	c0-0.5-0.1-0.9-0.2-1.4c-0.7-0.1-1.3-0.4-1.7-0.9l-1.1-1.3l-2.9,1.6c0.4,0.6,0.6,1.3,0.7,2.1L29.7,45.4z M25.7,36.4
	c-0.3,0.3-0.5,0.6-0.5,1c0,0.4,0.1,0.8,0.3,1.1l3.2,3.9c0.5,0.6,1.5,0.7,2.1,0.2l1.3-1c0,0,0,0,0,0l1-0.9c0.7-0.5,0.8-1.6,0.3-2.3
	l-2.9-4.2c-0.3-0.4-0.7-0.6-1.1-0.6c-0.3,0-0.6,0.1-0.9,0.3L25.7,36.4z M32.8,18.9c-0.2-0.5-1-0.7-1.6-0.8v4.1
	C33,20.2,33,19.3,32.8,18.9L32.8,18.9z M8,10.9c3.2-1,7-1.5,11-1.5V3.1c0-0.3,0.3-0.6,0.6-0.6s0.6,0.3,0.6,0.6v6.2
	c4,0,7.8,0.6,11,1.5V5.4c-0.2-0.5-1.2-2.8-3.8-3.1l-7.8-1.2l-7.8,1.2C9.2,2.6,8.1,5,8,5.4L8,10.9z M7.6,12.1c-1.1,0.4-2.1,0.8-3,1.2
	l3.9,1c0.8-0.2,5.7-1,11.7-1c3.8,0,7.3,0.3,10.5,1l3.9-1c-0.9-0.5-2-0.9-3-1.2c0,0,0,0,0,0c-3.4-1.1-7.5-1.7-11.9-1.7
	S11.1,11,7.6,12.1C7.6,12.1,7.6,12.1,7.6,12.1L7.6,12.1z M6.2,18.9C6,19.3,6,20.2,7.8,22.2v-4.1C7.2,18.2,6.4,18.4,6.2,18.9
	L6.2,18.9z M11.3,29.2c1.7,1.7,4.2,2.7,7.5,2.7c0.2,0,0.4,0,0.7,0c0.2,0,0.5,0,0.7,0c3.3-0.1,5.8-1,7.5-2.8c2.5-2.5,2.4-6,2.4-6
	v-7.8c-3-0.6-6.3-0.9-10-0.9c-5.4,0-9.9,0.7-11.2,0.9v7.8C8.9,23.2,8.8,26.7,11.3,29.2L11.3,29.2z M18.8,33.1c-2,0.1-4,0.7-5.7,1.7
	l0.9,0.8c0.2,0.1,0.3,0.3,0.4,0.4c1.6-0.8,3.3-1.2,5.1-1.2s3.5,0.4,5.1,1.2c0.1-0.1,0.2-0.3,0.4-0.4l0.9-0.8c-1.7-1-3.7-1.6-5.7-1.7
	c-0.1,0-0.3,0-0.4,0h-0.2c0,0,0,0,0,0c0,0,0,0,0,0h-0.2C19.1,33.1,19,33.1,18.8,33.1L18.8,33.1z M5.6,38.4c-0.5,0.7-0.3,1.7,0.3,2.3
	l1,0.9c0,0,0,0,0,0l1.3,1c0.6,0.5,1.6,0.4,2.1-0.2l3.2-3.9c0.3-0.3,0.4-0.7,0.3-1.1c0-0.4-0.2-0.8-0.5-1L10.4,34
	c-0.3-0.2-0.5-0.3-0.9-0.3c-0.4,0-0.8,0.2-1.1,0.6L5.6,38.4L5.6,38.4z M6.9,43c-0.2,0.8-0.3,1.6-0.3,2.4h1.6c0-0.5,0.1-1,0.2-1.5
	c-0.3-0.1-0.6-0.3-0.9-0.5L6.9,43L6.9,43z M35.7,50.9c1.2,0,2.2-1,2.2-2.2c0-1.2-1-2.2-2.2-2.2H19.5L6,46.5H3.3
	c-1.2,0-2.2,1-2.2,2.2c0,1.2,1,2.2,2.2,2.2L35.7,50.9L35.7,50.9z M22.8,27.7c0.3-0.1,0.4-0.4,0.3-0.7c-0.1-0.3-0.4-0.4-0.7-0.3
	c-3,1.1-5.8,0-5.8,0c-0.3-0.1-0.6,0-0.7,0.3c-0.1,0.3,0,0.6,0.3,0.7c0.1,0,1.5,0.5,3.4,0.5C20.6,28.3,21.7,28.1,22.8,27.7L22.8,27.7
	z"/>
</svg>
