<?xml version="1.0" encoding="utf-8"?>
<!-- Generator: Adobe Illustrator 26.0.1, SVG Export Plug-In . SVG Version: 6.00 Build 0)  -->
<svg version="1.1" id="Layer_1" xmlns="http://www.w3.org/2000/svg" xmlns:xlink="http://www.w3.org/1999/xlink" x="0px" y="0px"
	 viewBox="0 0 14.7 15" style="enable-background:new 0 0 14.7 15;" xml:space="preserve">
<path d="M7.4,8C3.2,8,0,8.5,0,14.2v0.3C0,14.8,0.2,15,0.4,15h13.9c0.2,0,0.4-0.2,0.4-0.4v-0.3C14.7,8.8,11,8,7.4,8z M7.4,7.4
	c1,0,1.9-0.4,2.6-1.1c0.7-0.7,1.1-1.6,1.1-2.6c0-1-0.4-1.9-1.1-2.6C9.3,0.4,8.4,0,7.4,0c-1,0-1.9,0.4-2.6,1.1C4,1.8,3.6,2.7,3.6,3.7
	c0,1,0.4,1.9,1.1,2.6S6.4,7.4,7.4,7.4L7.4,7.4z"/>
</svg>
