<svg version="1.1" id="Layer_1" xmlns="http://www.w3.org/2000/svg" xmlns:xlink="http://www.w3.org/1999/xlink" x="0px" y="0px" viewBox="0 0 68.2 50" style="enable-background:new 0 0 68.2 50;" xml:space="preserve"><path d="M30.1,21.2L30.1,21.2c0,0.3-0.1,0.5-0.3,0.7c-0.2,0.2-0.4,0.3-0.6,0.3c-0.2,0-0.5-0.1-0.7-0.3c-0.2-0.2-0.3-0.4-0.3-0.7 c0-1.6-0.8-3.1-2.1-4c-0.8-0.5-1.7-0.8-2.6-0.8c-0.7,0-1.3,0.1-2,0.4c-1.5,0.7-2.5,2-2.7,3.7c-0.1,0.5-0.5,0.9-1,0.8 c-0.5-0.1-0.8-0.6-0.8-1.1c0.3-2.2,1.7-4.1,3.8-5.1c2.1-0.9,4.4-0.8,6.3,0.5C29,16.9,30.1,18.9,30.1,21.2z M61.1,21.2 c0,1.8-0.7,3.4-1.9,4.7c-1.2,1.3-2.9,2-4.6,2h0c-1.8,0-3.5-0.6-4.8-1.9c-1.3-1.2-2-2.9-2-4.7c0-1.8,0.7-3.5,1.9-4.8 c1.2-1.3,3-2,4.7-2h0c1.8,0,3.5,0.7,4.7,1.9C60.4,17.7,61.1,19.4,61.1,21.2z M59.3,21.2c0-1.3-0.5-2.5-1.4-3.4 c-0.4-0.5-1-0.8-1.5-1.1c-0.6-0.2-1.2-0.4-1.8-0.4c-1.3,0-2.5,0.5-3.4,1.3c-0.9,0.9-1.4,2.1-1.5,3.4v0.1c0,1.2,0.5,2.5,1.4,3.4 c0.9,0.9,2.1,1.4,3.4,1.4h0c1.3,0,2.5-0.5,3.4-1.4C58.8,23.7,59.3,22.5,59.3,21.2z M46.6,9.8L37,4c-0.4-0.2-1-0.1-1.2,0.3 c-0.2,0.4-0.1,1,0.3,1.2l0,0l6.8,4H40c-0.5,0-0.9,0.4-0.9,0.9c0,0.5,0.4,0.9,0.9,0.9h6.2c0,0,0,0,0,0c0.4,0,0.8-0.3,0.9-0.7 C47.2,10.4,47,10,46.6,9.8z M46,20.3H32.4c-0.5,0-0.9,0.4-0.9,0.9s0.4,0.9,0.9,0.9H46c0.5,0,0.9-0.4,0.9-0.9S46.5,20.3,46,20.3z M62,9.1c-3.3-1.1-7.1-1.6-8.6-1.8l-0.1,0l-0.1,0L42.9,0.9c-0.9-0.6-2-0.9-3.1-0.9H28.2c-1,0-2,0.3-2.9,0.9l-6.6,4.6 c-1.1,0.8-2.3,1.1-3.6,1.1h0c-1.3,0-2.5,0.5-3.4,1.4c-0.9,0.9-1.4,2.2-1.4,3.5v3.7c0,1.2,0.5,2.4,1.3,3.3l0.5,0.5h0l2.3,2.4 c0.2,0.2,0.4,0.3,0.6,0.3s0.5-0.1,0.6-0.3c0.4-0.4,0.4-0.9,0-1.3l-2.8-2.9c-0.5-0.5-0.8-1.2-0.8-2v-3.7c0-0.8,0.3-1.6,0.9-2.1 c0.5-0.6,1.3-0.9,2.1-0.9c0,0,0,0,0,0c1.7,0,3.3-0.5,4.6-1.5l6.6-4.6c0.6-0.4,1.2-0.6,1.9-0.6h11.6c0.8,0,1.5,0.2,2.2,0.6L52.7,9 c0.1,0.1,0.2,0.1,0.4,0.1c4.3,0.5,13.3,2.4,13.3,5.3v5.9h-2.6c-0.5,0-0.9,0.4-0.9,0.9s0.4,0.9,0.9,0.9h3.6c0.2,0,0.5-0.1,0.6-0.3 c0.2-0.2,0.3-0.4,0.3-0.7v-6.8C68.2,12.3,66.1,10.5,62,9.1z M63.9,36.1c-0.3,0.5-0.7,0.9-1.3,1.1L42.1,45c-1.5,0.5-3,0.8-4.6,0.8 h-0.9l-20-1.4l0-0.1l0,0.1l-0.6,0l0.6,1.3l0,0c0.2,0.4,0,0.9-0.4,1.1l-7.3,3.2C8.8,50,8.7,50,8.6,50c-0.1,0-0.2,0-0.3-0.1 c-0.2-0.1-0.4-0.2-0.4-0.4L3.1,38.2c-0.2-0.4,0-0.9,0.4-1.1c0.2-0.1,0.4-0.1,0.7,0c0.2,0.1,0.4,0.3,0.5,0.5l0.5,1.3v-0.1L9,48.1 l5.8-2.5L7.7,28.7l-5.8,2.5l0.9,2.1c0.2,0.4,0,0.9-0.4,1.1c-0.2,0.1-0.4,0.1-0.6,0c-0.2-0.1-0.4-0.2-0.5-0.5l-1.2-2.9 c-0.2-0.4,0-0.9,0.4-1.1l7.3-3.2c0.2-0.1,0.4-0.1,0.6,0c0.2,0.1,0.3,0.2,0.4,0.4l1,2.2l0.3-0.3c2.1-2,6.2-5.5,10-5.5 c2.8,0.1,5.5,0.7,8.1,1.7c1.4,0.5,3,1,4.5,1.2l0,0c2.2,0.3,4.5,0.4,6.8,0.5c1.6,0,3,0.7,4.1,1.8c1.1,1.1,1.7,2.6,1.7,4.2 c0,0.4-0.1,0.7-0.3,1l-0.5,0.7l9-3.3c1.2-0.4,2.4-0.6,3.5-0.6c2.2,0,4.4,0.7,6.3,2.1c0.5,0.4,0.8,0.9,0.9,1.5 C64.3,35,64.2,35.6,63.9,36.1z M62.1,34.5c-2.3-1.8-5.4-2.2-8.2-1.2l-8.7,3.2l-0.1,0c-1.2,0.4-2.6,0.5-3.8,0.1l0,0l-7.5-1.5 c-0.1,0-0.2-0.1-0.3-0.1l-0.1,0h-7.3c-0.5,0-0.8-0.4-0.8-0.8c0-0.5,0.4-0.8,0.8-0.8h17.3l0-0.3c0-1.1-0.5-2.1-1.2-2.9 c-0.8-0.8-1.8-1.2-2.9-1.3c-2.3,0-4.7-0.2-7-0.5c-1.6-0.3-3.2-0.7-4.7-1.3c-2.4-1-5-1.5-7.6-1.6c-4.1,0-8.9,5.1-9.5,5.6l-0.1,0.1 l4.7,11.4l21.3,1.4l0.3,0c0.2,0,0.5,0,0.7,0c1.3,0,2.7-0.2,3.9-0.7L62,35.5c0.2-0.1,0.4-0.3,0.4-0.5C62.4,34.8,62.3,34.6,62.1,34.5z "/></svg>