<svg version="1.1" id="Layer_1" xmlns="http://www.w3.org/2000/svg" xmlns:xlink="http://www.w3.org/1999/xlink" x="0px" y="0px" viewBox="0 0 91.6 50" style="enable-background:new 0 0 91.6 50;" xml:space="preserve"><path d="M28,25.6c-5,0-9.2,4.1-9.2,9.2c0,5,4.1,9.2,9.2,9.2c5.1,0,9.2-4.1,9.2-9.2C37.3,29.7,33,25.6,28,25.6z M28,41.6 c-3.7,0-6.9-3-6.9-6.9c0-3.7,3-6.9,6.9-6.9s6.9,3,6.9,6.9S31.8,41.6,28,41.6z M79.8,22.8c0-0.5-0.2-0.8-0.7-0.9l-14-6.9L57.2,0.6 C57,0.2,56.6,0,56.2,0h-29c-0.5,0-0.8,0.2-1.1,0.7l-6.9,14.5l-7.5,6.1C11,22,10.4,23,10.4,24.2v8.5c0,2.1,1.6,3.7,3.7,3.7h2.3 c-0.1-0.5-0.1-0.9-0.1-1.5v-0.8H14c-0.7,0-1.4-0.6-1.4-1.4v-8.5c0-0.5,0.2-0.8,0.5-1.1l7.4-6h42.7c0.1,0,0.2,0,0.4-0.1l13.7,6.7 l0.1,1.2h-2.2c-1.4,0-2.6,1.2-2.6,2.6V30c0,1.4,1.2,2.6,2.6,2.6l3.2,0c0,0.4-0.1,0.7-0.4,0.9C77.7,33.8,77.3,34,77,34h-4.3v0.8 c0,0.5,0,1.1-0.1,1.5h4.3c1.1,0,2-0.5,2.7-1.2c0.7-0.7,1.1-1.8,0.9-2.8L79.8,22.8z M40.8,14.7H22.2L28,2.3h12.7V14.7z M43.1,14.7 V2.3h12.5l6.7,12.4H43.1z M75.3,30.3c-0.1,0-0.2-0.1-0.2-0.2v-2.6c0-0.1,0.1-0.2,0.2-0.2h2.5l0.2,3.2h-2.7L75.3,30.3z M49.6,34.8 c0,0.5,0,1.1,0.1,1.5H39.5c0.1-0.5,0.1-0.9,0.1-1.5V34h10.2C49.6,34.2,49.6,34.5,49.6,34.8L49.6,34.8z M61.1,25.6 c-5,0-9.2,4.1-9.2,9.2c0,5,4.1,9.2,9.2,9.2c5,0,9.2-4.1,9.2-9.2C70.3,29.7,66.2,25.6,61.1,25.6z M61.1,41.6c-3.7,0-6.9-3-6.9-6.9 c0-3.7,3-6.9,6.9-6.9c3.7,0,6.9,3,6.9,6.9S64.9,41.6,61.1,41.6z M37.3,19.9c0,0.7-0.5,1.2-1.2,1.2h-5.6c-0.7,0-1.2-0.5-1.2-1.2 c0-0.7,0.5-1.2,1.2-1.2h5.6C36.7,18.7,37.3,19.3,37.3,19.9z M51.3,21h-5.6c-0.7,0-1.2-0.5-1.2-1.2c0-0.7,0.5-1.2,1.2-1.2h5.6 c0.7,0,1.2,0.5,1.2,1.2C52.4,20.6,51.9,21,51.3,21z M90.6,50H1.1c-0.6,0-1-0.4-1-1v0c0-0.6,0.4-1,1-1h89.5c0.6,0,1,0.4,1,1v0 C91.6,49.6,91.2,50,90.6,50z M5.8,36H1.2C0.5,36,0,35.5,0,34.8l0,0c0-0.7,0.5-1.2,1.2-1.2h4.6c0.7,0,1.2,0.5,1.2,1.2l0,0 C7,35.5,6.4,36,5.8,36z M90.5,36H85c-0.7,0-1.2-0.5-1.2-1.2l0,0c0-0.7,0.5-1.2,1.2-1.2h5.4c0.7,0,1.2,0.5,1.2,1.2l0,0 C91.6,35.5,91.1,36,90.5,36z"/></svg>