<svg version="1.1" id="Layer_1" xmlns="http://www.w3.org/2000/svg" xmlns:xlink="http://www.w3.org/1999/xlink" x="0px" y="0px" viewBox="0 0 43.6 50" style="enable-background:new 0 0 43.6 50;" xml:space="preserve"><path d="M43.5,44.9l-4.8-8.3c0.3-0.4,0.7-0.8,1.1-1.1c1.2-0.8,1.6-1.8,1.5-3.3c-0.1-0.9,0-1.7,0.3-2.5c0.5-1.3,0.4-2.4-0.5-3.6 c-0.6-0.7-0.8-1.3-1-2.3c-0.3-1.4-1-2.3-2.4-2.7c-0.8-0.3-1.4-0.6-2.1-1.3c-0.8-0.8-1.6-1.2-2.5-1.2c-0.3,0-0.6,0.1-1,0.2 c-0.7,0.2-1.5,0.2-2.5,0c-0.4-0.1-0.7-0.1-1-0.1c0,0,0,0,0,0c-0.9,0-1.7,0.4-2.4,1.2c-0.7,0.7-1.3,1.1-2.1,1.3 c-1.4,0.5-2.1,1.3-2.4,2.7c-0.2,0.9-0.5,1.6-1,2.3c-0.9,1.1-1.1,2.2-0.5,3.6c0.3,0.8,0.4,1.5,0.3,2.5c-0.1,1.4,0.3,2.5,1.5,3.3 c0.4,0.3,0.8,0.6,1.1,1l-4.8,8.4c-0.2,0.3-0.2,0.7,0,1c0.2,0.3,0.5,0.5,0.9,0.4l3.8-0.4l1.6,3.5c0.1,0.3,0.5,0.5,0.8,0.6 c0.4,0,0.7-0.2,0.9-0.5l4.6-8l4.6,8c0.2,0.3,0.5,0.5,0.8,0.5c0,0,0,0,0.1,0c0.4,0,0.7-0.2,0.8-0.6l1.6-3.5l3.8,0.4 c0.4,0,0.7-0.1,0.9-0.4C43.6,45.6,43.7,45.2,43.5,44.9z M24.3,38.3c0.6,0.7,1.3,1,2.4,1c0.8,0,1.6,0.3,2.4,0.7 c0.1,0.1,0.2,0.1,0.3,0.2l-3.9,6.8l-1.1-2.5c-0.2-0.3-0.5-0.6-0.9-0.6c0,0-0.1,0-0.1,0l-2.6,0.3L24.3,38.3z M25.4,36.5 c-0.6-1.1-1.1-1.8-2.2-2.5c-0.7-0.5-0.8-0.8-0.7-1.6c0.1-1.3,0-2.3-0.5-3.3c-0.3-0.8-0.2-1.2,0.2-1.7c0.8-1,1.1-1.8,1.4-3 c0.2-0.9,0.4-1.1,1.1-1.3c1.1-0.4,2-0.9,2.8-1.8c0.4-0.4,0.8-0.6,1.2-0.6c0.2,0,0.3,0,0.5,0.1c1.1,0.3,2.2,0.3,3.3,0 c0.9-0.2,1.4,0.2,1.7,0.5l0,0c0.8,0.9,1.7,1.4,2.8,1.8c0.7,0.2,1,0.4,1.1,1.3c0.2,1.2,0.6,2.1,1.4,3c0.4,0.5,0.6,0.9,0.2,1.7 c-0.4,1-0.6,2-0.5,3.3c0.1,0.8,0,1.1-0.7,1.6c-1.1,0.8-1.7,1.4-2.2,2.5c-0.3,0.6-0.6,0.9-1.5,0.9c-1.3,0-2.2,0.3-3.2,1 c-0.6,0.4-1.1,0.3-1.7,0c-1.2-0.7-2-0.9-3.2-1C26,37.4,25.7,37,25.4,36.5z M32.7,40c0.6-0.3,1.4-0.7,2.4-0.7c1.1,0,1.8-0.3,2.4-1 l3.4,5.9l-2.6-0.3c-0.4,0-0.8,0.2-1,0.6L36.2,47l-3.9-6.8C32.4,40.1,32.6,40.1,32.7,40z M32.3,35.5c2.5-0.6,4.3-2.8,4.5-5.4 c0-0.3,0-0.5-0.2-0.7C36.5,29.2,36.2,29,36,29c-0.3,0-0.5,0.1-0.7,0.2c-0.2,0.2-0.3,0.4-0.3,0.7c-0.1,1.8-1.4,3.3-3.1,3.7 c-1.7,0.4-3.5-0.3-4.4-1.9c-0.9-1.5-0.8-3.5,0.4-4.9c1.2-1.4,3-1.8,4.6-1.1c0.2,0.1,0.5,0.1,0.7,0c0.2-0.1,0.4-0.3,0.5-0.5 c0.2-0.5,0-1-0.5-1.2c-1.2-0.5-2.4-0.6-3.7-0.3c-1.2,0.3-2.3,1-3.2,1.9c-1.7,2-1.9,4.8-0.6,7.1c1.1,1.8,3,2.9,5.1,2.9 C31.4,35.7,31.8,35.6,32.3,35.5z M29.6,24L29.6,24L29.6,24L29.6,24z M30.7,30l4.9-4.8c0.2-0.2,0.4-0.3,0.7-0.3l0,0c0,0,0,0,0,0 c0.4,0,0.7,0.2,0.9,0.6c0.2,0.4,0.1,0.8-0.2,1l-5.2,5.2c-0.3,0.3-0.6,0.4-1,0.4c-0.4,0-0.7-0.1-1-0.4l-1.6-1.6 c-0.3-0.2-0.3-0.6-0.3-0.9c0.1-0.3,0.4-0.6,0.7-0.7c0.3-0.1,0.6,0,0.9,0.3L30.7,30z M22,48.3c0.2,0.2,0.3,0.4,0.3,0.7 c0,0.3-0.1,0.5-0.3,0.7c-0.2,0.2-0.4,0.3-0.6,0.3c0,0,0,0,0,0l-20.4,0c0,0,0,0,0,0c-0.2,0-0.5-0.1-0.6-0.3C0.1,49.4,0,49.2,0,49 V12.7c0-0.2,0.1-0.4,0.2-0.6L10.5,0.3C10.6,0.1,10.9,0,11.1,0l24.8,0c0.5,0,0.9,0.4,0.9,0.9v16c0,0.2-0.1,0.5-0.3,0.7 c-0.2,0.2-0.4,0.3-0.7,0.3c-0.2,0-0.5-0.1-0.7-0.3c-0.2-0.2-0.3-0.4-0.3-0.7V1.8H11.6l-8.6,9.9h8.5V4.6c0-0.2,0.1-0.5,0.3-0.6 c0.2-0.2,0.4-0.3,0.6-0.3c0.2,0,0.5,0.1,0.7,0.3c0.2,0.2,0.3,0.4,0.3,0.7v8c0,0.5-0.4,0.9-0.9,0.9H1.8v34.5h19.5 C21.6,48,21.9,48.1,22,48.3z M17.5,26.7c-0.2,0.3-0.5,0.4-0.8,0.4H7c-0.6,0-0.9-0.5-0.9-1c0-0.2,0.1-0.4,0.2-0.6 c0.1-0.1,0.3-0.3,0.7-0.3c0.8,0,1.8,0,2.8,0c2.3,0,4.8,0,6.9,0c0.4,0,0.7,0.2,0.8,0.4C17.7,26,17.7,26.4,17.5,26.7z M17.5,33 c-0.2,0.3-0.5,0.4-0.8,0.4H7c-0.6,0-0.9-0.5-0.9-1c0-0.2,0.1-0.4,0.2-0.6c0.1-0.1,0.3-0.3,0.7-0.3c0.8,0,1.8,0,2.8,0 c2.3,0,4.8,0,6.9,0c0.4,0,0.7,0.2,0.8,0.4C17.7,32.3,17.7,32.7,17.5,33z M17.5,38.3c0.2,0.3,0.2,0.7,0,0.9c-0.2,0.3-0.5,0.4-0.8,0.4 H7c-0.6,0-0.9-0.5-0.9-1c0-0.2,0.1-0.4,0.2-0.6C6.4,38,6.6,37.8,7,37.8c0.8,0,1.8,0,2.8,0c2.3,0,4.8,0,6.9,0c0,0,0,0,0,0 C17,37.8,17.3,38,17.5,38.3z M19.8,20.9H7c-0.6,0-0.9-0.5-0.9-1c0-0.2,0.1-0.4,0.2-0.6C6.4,19.2,6.6,19,7,19c0.8,0,1.9,0,3.2,0 c3.2,0,7.5,0,9.7,0c0,0,0,0,0,0c0.4,0,0.6,0.2,0.8,0.4c0.2,0.3,0.2,0.7,0,0.9C20.5,20.7,20.2,20.9,19.8,20.9z"/></svg>