<?xml version="1.0" encoding="utf-8"?>
<!-- Generator: Adobe Illustrator 26.0.1, SVG Export Plug-In . SVG Version: 6.00 Build 0)  -->
<svg version="1.1" id="Layer_1" xmlns="http://www.w3.org/2000/svg" xmlns:xlink="http://www.w3.org/1999/xlink" x="0px" y="0px"
	 viewBox="0 0 70.2 57" style="enable-background:new 0 0 70.2 57;" xml:space="preserve">
<g>
	<path d="M66.2,44c-0.4,0-0.8-0.4-0.8-0.8l0-12.2c0-2.2-1.8-4-4-4H8.8c-2.2,0-4,1.8-4,4v12.2C4.8,43.7,4.4,44,4,44s-0.8-0.4-0.8-0.8
		V31.1c0-3.1,2.5-5.6,5.6-5.6h52.6c3.1,0,5.6,2.5,5.6,5.6v12.2C67,43.7,66.6,44,66.2,44L66.2,44z"/>
	<path d="M69.4,49.6H0.8c-0.4,0-0.8-0.4-0.8-0.8v-5.6c0-0.4,0.4-0.8,0.8-0.8h68.6c0.4,0,0.8,0.4,0.8,0.8v5.6
		C70.2,49.3,69.8,49.6,69.4,49.6z M1.6,48h67v-4h-67V48z"/>
	<path d="M60.9,57h-3.5c-2.1,0-3.8-1.7-3.8-3.8l0-4.4c0-0.4,0.4-0.8,0.8-0.8c0.4,0,0.8,0.4,0.8,0.8v4.4c0,1.2,1,2.2,2.2,2.2h3.5
		c1.2,0,2.2-1,2.2-2.2l0-4.4c0-0.4,0.4-0.8,0.8-0.8c0.4,0,0.8,0.4,0.8,0.8v4.4C64.6,55.3,62.9,57,60.9,57L60.9,57z"/>
	<path d="M12.8,57H9.3c-2.1,0-3.8-1.7-3.8-3.8v-4.4c0-0.4,0.4-0.8,0.8-0.8c0.4,0,0.8,0.4,0.8,0.8v4.4c0,1.2,1,2.2,2.2,2.2h3.5
		c1.2,0,2.2-1,2.2-2.2l0-4.4c0-0.4,0.4-0.8,0.8-0.8s0.8,0.4,0.8,0.8v4.4C16.5,55.3,14.9,57,12.8,57L12.8,57z"/>
	<path d="M61.4,27.1c-0.4,0-0.7-0.3-0.8-0.7l-2.1-14.2c-0.5-3.2-2.6-6.4-6.3-6.4H17.9c-3.7,0-5.8,3.2-6.3,6.4L9.6,26.4
		c-0.1,0.4-0.5,0.7-0.9,0.7C8.2,27,7.9,26.6,8,26.2L10.1,12c0.7-4.6,3.8-7.7,7.8-7.7h34.3c4,0,7.2,3.1,7.8,7.7l2.1,14.2
		c0.1,0.4-0.2,0.8-0.7,0.9C61.5,27.1,61.4,27.1,61.4,27.1L61.4,27.1z"/>
	<path d="M56.6,39.4c-2.5,0-4.6-2.1-4.6-4.6s2.1-4.6,4.6-4.6s4.6,2.1,4.6,4.6S59.1,39.4,56.6,39.4z M56.6,31.7c-1.7,0-3,1.4-3,3
		c0,1.7,1.4,3,3,3c1.7,0,3-1.4,3-3C59.6,33.1,58.2,31.7,56.6,31.7z"/>
	<path d="M13.6,39.4C11,39.4,9,37.3,9,34.8s2.1-4.6,4.6-4.6s4.6,2.1,4.6,4.6C18.2,37.3,16.1,39.4,13.6,39.4z M13.6,31.7
		c-1.7,0-3,1.4-3,3c0,1.7,1.4,3,3,3s3-1.4,3-3C16.6,33.1,15.3,31.7,13.6,31.7z"/>
	<path d="M68.2,29.1h-2.9c-0.4,0-0.8-0.4-0.8-0.8c0-0.4,0.4-0.8,0.8-0.8h2.1v-2c0-1.5-1.2-2.7-2.7-2.7h-3.9c-0.4,0-0.8-0.4-0.8-0.8
		c0-0.4,0.4-0.8,0.8-0.8h3.9c2.4,0,4.3,1.9,4.3,4.3v2.8C69,28.7,68.6,29.1,68.2,29.1L68.2,29.1z"/>
	<path d="M4.9,29.1H1.9c-0.4,0-0.8-0.4-0.8-0.8v-2.8c0-2.4,1.9-4.3,4.3-4.3h3.9c0.4,0,0.8,0.4,0.8,0.8c0,0.4-0.4,0.8-0.8,0.8H5.5
		c-1.5,0-2.7,1.2-2.7,2.7v2h2.1c0.4,0,0.8,0.4,0.8,0.8C5.7,28.7,5.3,29.1,4.9,29.1L4.9,29.1z"/>
	<path d="M43.1,5.9c-0.4,0-0.8-0.4-0.8-0.8V2.7c0-0.6-0.5-1.1-1.1-1.1H29c-0.6,0-1.1,0.5-1.1,1.1v2.4c0,0.4-0.4,0.8-0.8,0.8
		c-0.4,0-0.8-0.4-0.8-0.8V2.7C26.3,1.2,27.5,0,29,0h12.2c1.5,0,2.7,1.2,2.7,2.7v2.4C43.9,5.5,43.5,5.9,43.1,5.9L43.1,5.9z"/>
	<path d="M47.4,38.5H22.7c-0.4,0-0.8-0.4-0.8-0.8v-6c0-0.4,0.4-0.8,0.8-0.8h24.7c0.4,0,0.8,0.4,0.8,0.8v6
		C48.2,38.2,47.8,38.5,47.4,38.5z M23.5,37h23.1v-4.4H23.5V37z"/>
	<path d="M54.3,27.1c-0.4,0-0.8-0.4-0.8-0.8V22c0-1.2-0.9-2.1-2.1-2.1h-9.6c-1.2,0-2.1,0.9-2.1,2.1v4.3c0,0.4-0.4,0.8-0.8,0.8
		s-0.8-0.4-0.8-0.8V22c0-2,1.6-3.7,3.7-3.7h9.6c2,0,3.7,1.6,3.7,3.7v4.3C55.1,26.7,54.7,27.1,54.3,27.1L54.3,27.1z"/>
	<path d="M46.6,17.9c-2.4,0-4.4-2-4.4-4.4s2-4.4,4.4-4.4s4.4,2,4.4,4.4S49,17.9,46.6,17.9L46.6,17.9z M46.6,10.8
		c-1.5,0-2.8,1.2-2.8,2.8c0,1.5,1.2,2.8,2.8,2.8c1.5,0,2.8-1.2,2.8-2.8C49.4,12,48.2,10.8,46.6,10.8z"/>
</g>
</svg>
