<?xml version="1.0" encoding="utf-8"?>
<!-- Generator: Adobe Illustrator 26.0.1, SVG Export Plug-In . SVG Version: 6.00 Build 0)  -->
<svg version="1.1" id="Layer_1" xmlns="http://www.w3.org/2000/svg" xmlns:xlink="http://www.w3.org/1999/xlink" x="0px" y="0px"
	 viewBox="0 0 20 20" style="enable-background:new 0 0 20 20;" xml:space="preserve">
<path d="M0.2,6c0.5-1.8,2.3-3.8,3-3.8c1.2,0,2.6,2.1,3.4,3.4C6.9,6.2,6.8,7,6.4,7.5L5.3,8.8C5,9.2,4.9,9.7,5.2,10.1
	c0.6,1,1.3,1.8,2.1,2.6c0.8,0.8,1.7,1.5,2.6,2.1c0.4,0.2,0.9,0.2,1.3-0.1l1.4-1.1c0.5-0.4,1.2-0.5,1.8-0.2c1.3,0.7,3.5,2.1,3.4,3.4
	c0,0.7-2,2.5-3.8,3c-3.1,0.8-6.3-1.4-9.3-4.5S-0.7,9.1,0.2,6z M19.1,10h0.7c0.1,0,0.2-0.1,0.2-0.2c0,0,0,0,0,0
	c-0.1-5.3-4.4-9.7-9.8-9.8C10.1,0,10,0.1,10,0.2c0,0,0,0,0,0v0.7c0,0.1,0.1,0.2,0.2,0.2C15,1.2,18.8,5,18.9,9.8
	C18.9,9.9,19,10,19.1,10L19.1,10z M16.4,10h0.7c0.1,0,0.2-0.1,0.2-0.2c0,0,0,0,0,0c-0.1-3.9-3.2-7-7.1-7.1c-0.1,0-0.2,0.1-0.2,0.2
	c0,0,0,0,0,0v0.7c0,0.1,0.1,0.2,0.2,0.2c3.3,0.1,5.9,2.7,6,6C16.2,9.9,16.3,10,16.4,10L16.4,10z M10.2,5.3c-0.1,0-0.2,0.1-0.2,0.2
	c0,0,0,0,0,0v0.7c0,0.1,0.1,0.2,0.2,0.2C12,6.6,13.4,8,13.6,9.8c0,0.1,0.1,0.2,0.2,0.2h0.7c0.1,0,0.2-0.1,0.2-0.2c0,0,0,0,0,0
	C14.5,7.4,12.6,5.5,10.2,5.3z"/>
</svg>
