<svg version="1.1" id="Layer_1" xmlns="http://www.w3.org/2000/svg" xmlns:xlink="http://www.w3.org/1999/xlink" x="0px" y="0px" viewBox="0 0 10.8 20" style="enable-background:new 0 0 10.8 20;" xml:space="preserve"><path d="M10.4,0L7.8,0C4.9,0,3,1.9,3,4.9v2.3H0.4C0.2,7.2,0,7.4,0,7.6v3.3c0,0.2,0.2,0.4,0.4,0.4H3v8.3C3,19.8,3.2,20,3.4,20h3.4 c0.2,0,0.4-0.2,0.4-0.4v-8.3h3c0.2,0,0.4-0.2,0.4-0.4l0-3.3c0-0.1,0-0.2-0.1-0.3s-0.2-0.1-0.3-0.1H7.2V5.3c0-0.9,0.2-1.4,1.4-1.4 h1.7c0.2,0,0.4-0.2,0.4-0.4V0.4C10.8,0.2,10.6,0,10.4,0z"></path></svg>