<svg version="1.1" id="Layer_1" xmlns="http://www.w3.org/2000/svg" xmlns:xlink="http://www.w3.org/1999/xlink" x="0px" y="0px" viewBox="0 0 20 13.8" style="enable-background:new 0 0 20 13.8;" xml:space="preserve"><path d="M1.5,0C1.2,0,1,0.1,0.7,0.3l8.7,8.2c0.3,0.3,0.9,0.3,1.2,0l8.7-8.2C19,0.1,18.8,0,18.5,0H1.5L1.5,0z M0.1,1 C0.1,1.2,0,1.4,0,1.6v10.7c0,0.3,0.1,0.6,0.3,0.9l6.1-6.1L0.1,1L0.1,1z M19.9,1l-6.2,6l6.1,6.1c0.1-0.3,0.3-0.6,0.3-0.9V1.6 C20,1.4,19.9,1.2,19.9,1L19.9,1z M12.9,7.7l-1.6,1.5c-0.8,0.7-1.9,0.7-2.6,0L7.1,7.7l-6,6c0.1,0.1,0.3,0.1,0.5,0.1h16.9 c0.1,0,0.3,0,0.5-0.1L12.9,7.7L12.9,7.7z"></path></svg>