<?xml version="1.0" encoding="utf-8"?>
<!-- Generator: Adobe Illustrator 26.0.1, SVG Export Plug-In . SVG Version: 6.00 Build 0)  -->
<svg version="1.1" id="Layer_1" xmlns="http://www.w3.org/2000/svg" xmlns:xlink="http://www.w3.org/1999/xlink" x="0px" y="0px"
	 viewBox="0 0 15 15" style="enable-background:new 0 0 15 15;" xml:space="preserve">
<path d="M13.4,1.7h-1.7V0.7C11.7,0.3,11.4,0,11,0h-0.8C9.8,0,9.5,0.3,9.5,0.7v1h-4v-1C5.5,0.3,5.2,0,4.9,0H4C3.7,0,3.4,0.3,3.4,0.7
	v1H1.6C0.7,1.7,0,2.5,0,3.4v10C0,14.3,0.7,15,1.6,15h11.7c0.9,0,1.6-0.7,1.6-1.6v-10C15.1,2.5,14.3,1.7,13.4,1.7L13.4,1.7z
	 M14.1,13.4c0,0.4-0.3,0.7-0.7,0.7H1.6c-0.4,0-0.7-0.3-0.7-0.7V5.6h13.2L14.1,13.4L14.1,13.4z M2.8,9.2h1.7C4.8,9.2,5,9,5,8.8V7.5
	C5,7.2,4.8,7,4.6,7H2.8C2.6,7,2.4,7.2,2.4,7.5v1.3C2.4,9,2.6,9.2,2.8,9.2L2.8,9.2z M6.7,9.2h1.7c0.2,0,0.4-0.2,0.4-0.4V7.5
	C8.8,7.2,8.7,7,8.4,7H6.7C6.4,7,6.2,7.2,6.2,7.5v1.3C6.2,9,6.4,9.2,6.7,9.2z M10.6,9.2h1.7c0.2,0,0.4-0.2,0.4-0.4V7.5
	c0-0.2-0.2-0.4-0.4-0.4h-1.7c-0.2,0-0.4,0.2-0.4,0.4v1.3C10.1,9,10.3,9.2,10.6,9.2L10.6,9.2z M2.8,12.7h1.7c0.2,0,0.4-0.2,0.4-0.4
	V11c0-0.2-0.2-0.4-0.4-0.4H2.8c-0.2,0-0.4,0.2-0.4,0.4v1.3C2.4,12.5,2.6,12.7,2.8,12.7L2.8,12.7z M6.7,12.7h1.7
	c0.2,0,0.4-0.2,0.4-0.4V11c0-0.2-0.2-0.4-0.4-0.4H6.7c-0.2,0-0.4,0.2-0.4,0.4v1.3C6.2,12.5,6.4,12.7,6.7,12.7z M11,12.9
	c0.1,0.1,0.2,0.1,0.2,0l1.9-1.9c0.1-0.1,0.1-0.2,0-0.2l-0.5-0.5c-0.1-0.1-0.2-0.1-0.2,0l-1.2,1.2l-0.6-0.6c-0.1-0.1-0.2-0.1-0.2,0
	l-0.5,0.5c-0.1,0.1-0.1,0.2,0,0.2L11,12.9z"/>
</svg>
