<?xml version="1.0" encoding="utf-8"?>
<!-- Generator: Adobe Illustrator 26.0.1, SVG Export Plug-In . SVG Version: 6.00 Build 0)  -->
<svg version="1.1" id="Layer_1" xmlns="http://www.w3.org/2000/svg" xmlns:xlink="http://www.w3.org/1999/xlink" x="0px" y="0px"
	 viewBox="0 0 40.7 50" style="enable-background:new 0 0 40.7 50;" xml:space="preserve">
<path style="fill:#B0B7BB;" d="M30.2,12.1c1.6,0.1,6.2,0.6,9.2,5c-0.2,0.1-5.5,3.2-5.4,9.5c0.1,7.6,6.6,10.1,6.7,10.1
	c-0.1,0.2-1.1,3.6-3.5,7.1c-2.1,3.1-4.2,6.1-7.7,6.1c-3.3,0.1-4.4-2-8.3-2c-3.8,0-5,1.9-8.2,2c-3.3,0.1-5.8-3.3-7.9-6.3
	C1,37.5-2.3,26.1,2.1,18.5c2.2-3.8,6.1-6.2,10.3-6.3c3.2-0.1,6.3,2.2,8.3,2.2C22.6,14.4,26.1,11.8,30.2,12.1 M27.7,8
	c1.7-2.1,2.9-5.1,2.6-8c-2.5,0.1-5.6,1.7-7.4,3.8c-1.6,1.9-3,4.9-2.6,7.7C23.1,11.7,26,10.1,27.7,8"/>
</svg>
