<?xml version="1.0" encoding="utf-8"?>
<!-- Generator: Adobe Illustrator 26.0.1, SVG Export Plug-In . SVG Version: 6.00 Build 0)  -->
<svg version="1.1" id="Layer_1" xmlns="http://www.w3.org/2000/svg" xmlns:xlink="http://www.w3.org/1999/xlink" x="0px" y="0px"
	 viewBox="0 0 26.2 30" style="enable-background:new 0 0 26.2 30;" xml:space="preserve">
<path d="M14.5,29.1c-0.3,0-0.5-0.2-0.5-0.5c0-1.6,1.3-2.8,2.8-2.8c0.3,0,0.5,0.2,0.5,0.5c0,0.3-0.2,0.5-0.5,0.5
	c-1,0-1.9,0.8-1.9,1.9C15,28.9,14.8,29.1,14.5,29.1L14.5,29.1z M18.3,26.7h-1.4c-0.3,0-0.5-0.2-0.5-0.5c0-0.3,0.2-0.5,0.5-0.5h1.4
	c0.3,0,0.5,0.2,0.5,0.5C18.7,26.5,18.5,26.7,18.3,26.7z M14.5,30c-0.3,0-0.5-0.2-0.5-0.5v-0.9c0-0.3,0.2-0.5,0.5-0.5
	c0.3,0,0.5,0.2,0.5,0.5v0.9C15,29.8,14.8,30,14.5,30z M25.8,29.1c-0.3,0-0.5-0.2-0.5-0.5c0-1-0.8-1.9-1.9-1.9
	c-0.3,0-0.5-0.2-0.5-0.5c0-0.3,0.2-0.5,0.5-0.5c1.6,0,2.8,1.3,2.8,2.8C26.2,28.9,26,29.1,25.8,29.1L25.8,29.1z M23.4,26.7H22
	c-0.3,0-0.5-0.2-0.5-0.5c0-0.3,0.2-0.5,0.5-0.5h1.4c0.3,0,0.5,0.2,0.5,0.5C23.9,26.5,23.7,26.7,23.4,26.7z M25.8,30
	c-0.3,0-0.5-0.2-0.5-0.5v-0.9c0-0.3,0.2-0.5,0.5-0.5c0.3,0,0.5,0.2,0.5,0.5v0.9C26.2,29.8,26,30,25.8,30z M18.3,26.7
	c-0.3,0-0.5-0.2-0.5-0.5v-1.8c0-0.3,0.2-0.5,0.5-0.5c0.3,0,0.5,0.2,0.5,0.5v1.8C18.7,26.5,18.5,26.7,18.3,26.7z M22,26.7
	c-0.3,0-0.5-0.2-0.5-0.5v-1.8c0-0.3,0.2-0.5,0.5-0.5c0.3,0,0.5,0.2,0.5,0.5v1.8C22.5,26.5,22.3,26.7,22,26.7z M20.1,25.3
	c-2.6,0-4.7-2.1-4.7-4.7c0-0.3,0.2-0.5,0.5-0.5c0.3,0,0.5,0.2,0.5,0.5c0,2.1,1.7,3.7,3.7,3.7c2.1,0,3.8-1.7,3.8-3.7
	c0-0.3,0.2-0.5,0.5-0.5c0.3,0,0.5,0.2,0.5,0.5C24.8,23.2,22.7,25.3,20.1,25.3L20.1,25.3z M15.9,21.1c-0.3,0-0.5-0.2-0.5-0.5v-2.8
	c0-0.3,0.2-0.5,0.5-0.5c0.3,0,0.5,0.2,0.5,0.5v2.8C16.4,20.9,16.2,21.1,15.9,21.1z M24.4,21.1c-0.3,0-0.5-0.2-0.5-0.5v-2.8
	c0-0.3,0.2-0.5,0.5-0.5c0.3,0,0.5,0.2,0.5,0.5v2.8C24.8,20.9,24.6,21.1,24.4,21.1z M24.4,18.3c-0.3,0-0.5-0.2-0.5-0.5
	c0-0.8-0.6-1.4-1.4-1.4c-0.3,0-0.5-0.2-0.5-0.5c0-0.3,0.2-0.5,0.5-0.5c1.3,0,2.3,1.1,2.3,2.3C24.8,18.1,24.6,18.3,24.4,18.3
	L24.4,18.3z M22.5,16.4c-0.3,0-0.5-0.2-0.5-0.5v-1.9c0-0.3,0.2-0.5,0.5-0.5c0.3,0,0.5,0.2,0.5,0.5v1.9C23,16.2,22.7,16.4,22.5,16.4z
	 M22.5,14.5h-2.8c-0.3,0-0.5-0.2-0.5-0.5c0-0.3,0.2-0.5,0.5-0.5h2.8c0.3,0,0.5,0.2,0.5,0.5C23,14.3,22.7,14.5,22.5,14.5z M15.9,18.3
	c-0.3,0-0.5-0.2-0.5-0.5c0-2.3,1.9-4.2,4.2-4.2c0.3,0,0.5,0.2,0.5,0.5c0,0.3-0.2,0.5-0.5,0.5c-1.8,0-3.3,1.5-3.3,3.3
	C16.4,18.1,16.2,18.3,15.9,18.3L15.9,18.3z M24.4,19.7c-0.1,0-0.2,0-0.3-0.1l-1.4-0.9c-0.2-0.1-0.3-0.4-0.1-0.7
	c0.1-0.2,0.4-0.3,0.7-0.1l1.4,0.9c0.2,0.1,0.3,0.4,0.1,0.7C24.7,19.6,24.5,19.7,24.4,19.7L24.4,19.7z M20.4,19.2
	c-1.7,0-3.1-0.5-3.2-0.5c-0.2-0.1-0.4-0.3-0.3-0.6c0.1-0.2,0.3-0.4,0.6-0.3c0,0,1.4,0.4,2.9,0.4c1.5,0,2.4-0.4,2.4-0.4
	c0.2-0.1,0.5,0,0.6,0.2c0.1,0.2,0,0.5-0.2,0.6C23.1,18.7,22.1,19.2,20.4,19.2L20.4,19.2z M15.9,19.7c-0.2,0-0.3-0.1-0.4-0.2
	c-0.1-0.2-0.1-0.5,0.1-0.7l1.4-0.9c0.2-0.1,0.5-0.1,0.7,0.1c0.1,0.2,0.1,0.5-0.1,0.7l-1.4,0.9C16.1,19.7,16,19.7,15.9,19.7
	L15.9,19.7z M1.9,21.1c-0.3,0-0.5-0.2-0.5-0.5v-2c0-0.3,0.2-0.5,0.5-0.5c0.3,0,0.5,0.2,0.5,0.5v2C2.3,20.9,2.1,21.1,1.9,21.1z
	 M10.3,21.1c-0.3,0-0.5-0.2-0.5-0.5v-2.1c0-0.3,0.2-0.5,0.5-0.5c0.3,0,0.5,0.2,0.5,0.5v2.1C10.8,20.9,10.6,21.1,10.3,21.1z M10.3,19
	c-0.3,0-0.5-0.2-0.5-0.5c0-2.2-1.8-4-4-4c-2.2,0-4,1.8-4,4c0,0.3-0.2,0.5-0.5,0.5c-0.3,0-0.5-0.2-0.5-0.5c0-2.7,2.2-4.9,4.9-4.9
	c2.7,0,4.9,2.2,4.9,4.9C10.8,18.8,10.6,19,10.3,19L10.3,19z M10.3,19.6c-0.1,0-0.3-0.1-0.4-0.2c-1.1-1.5-1.6-1.3-3-0.9
	c-1.2,0.4-2.8,0.9-5.6,0.5c-0.3,0-0.4-0.3-0.4-0.5c0-0.3,0.3-0.4,0.5-0.4C4,18.5,5.5,18,6.6,17.6c1.4-0.5,2.5-0.8,4,1.2
	c0.2,0.2,0.1,0.5-0.1,0.7C10.5,19.5,10.4,19.6,10.3,19.6L10.3,19.6z M8,18.2c-0.1,0-0.2,0-0.3-0.1c-0.2-0.2-0.3-0.4-0.1-0.7l1.4-2
	c0.2-0.2,0.4-0.3,0.7-0.1c0.2,0.2,0.3,0.4,0.1,0.7l-1.4,2C8.3,18.1,8.1,18.2,8,18.2L8,18.2z M0.5,29.1c-0.3,0-0.5-0.2-0.5-0.5
	c0-1.6,1.3-2.8,2.8-2.8c0.3,0,0.5,0.2,0.5,0.5c0,0.3-0.2,0.5-0.5,0.5c-1,0-1.9,0.8-1.9,1.9C0.9,28.9,0.7,29.1,0.5,29.1L0.5,29.1z
	 M4.2,26.7H2.8c-0.3,0-0.5-0.2-0.5-0.5c0-0.3,0.2-0.5,0.5-0.5h1.4c0.3,0,0.5,0.2,0.5,0.5C4.7,26.5,4.5,26.7,4.2,26.7z M0.5,30
	C0.2,30,0,29.8,0,29.5v-0.9c0-0.3,0.2-0.5,0.5-0.5c0.3,0,0.5,0.2,0.5,0.5v0.9C0.9,29.8,0.7,30,0.5,30z M11.7,29.1
	c-0.3,0-0.5-0.2-0.5-0.5c0-1-0.8-1.9-1.9-1.9c-0.3,0-0.5-0.2-0.5-0.5c0-0.3,0.2-0.5,0.5-0.5c1.6,0,2.8,1.3,2.8,2.8
	C12.2,28.9,12,29.1,11.7,29.1L11.7,29.1z M9.4,26.7H8c-0.3,0-0.5-0.2-0.5-0.5c0-0.3,0.2-0.5,0.5-0.5h1.4c0.3,0,0.5,0.2,0.5,0.5
	C9.8,26.5,9.6,26.7,9.4,26.7z M11.7,30c-0.3,0-0.5-0.2-0.5-0.5v-0.9c0-0.3,0.2-0.5,0.5-0.5c0.3,0,0.5,0.2,0.5,0.5v0.9
	C12.2,29.8,12,30,11.7,30z M4.2,26.7c-0.3,0-0.5-0.2-0.5-0.5v-1.8c0-0.3,0.2-0.5,0.5-0.5c0.3,0,0.5,0.2,0.5,0.5v1.8
	C4.7,26.5,4.5,26.7,4.2,26.7z M8,26.7c-0.3,0-0.5-0.2-0.5-0.5v-1.8c0-0.3,0.2-0.5,0.5-0.5c0.3,0,0.5,0.2,0.5,0.5v1.8
	C8.4,26.5,8.2,26.7,8,26.7z M6.1,25.3c-2.6,0-4.7-2.1-4.7-4.7c0-0.3,0.2-0.5,0.5-0.5c0.3,0,0.5,0.2,0.5,0.5c0,2.1,1.7,3.7,3.7,3.7
	c2.1,0,3.8-1.7,3.8-3.7c0-0.3,0.2-0.5,0.5-0.5c0.3,0,0.5,0.2,0.5,0.5C10.8,23.2,8.7,25.3,6.1,25.3L6.1,25.3z M5.2,27.2
	c-0.1,0-0.1,0-0.2,0L4,26.7c-0.2-0.1-0.3-0.4-0.2-0.6c0.1-0.2,0.4-0.3,0.6-0.2l0.9,0.5c0.2,0.1,0.3,0.4,0.2,0.6
	C5.5,27.1,5.3,27.2,5.2,27.2L5.2,27.2z M5.2,27.2c-0.2,0-0.3-0.1-0.4-0.3c-0.1-0.2,0-0.5,0.2-0.6l0.9-0.5c0.2-0.1,0.5,0,0.6,0.2
	c0.1,0.2,0,0.5-0.2,0.6l-0.9,0.5C5.3,27.2,5.2,27.2,5.2,27.2L5.2,27.2z M7,27.2c-0.2,0-0.3-0.1-0.4-0.3c-0.1-0.2,0-0.5,0.2-0.6
	l0.9-0.5c0.2-0.1,0.5,0,0.6,0.2c0.1,0.2,0,0.5-0.2,0.6l-0.9,0.5C7.2,27.2,7.1,27.2,7,27.2L7,27.2z M7,27.2c-0.1,0-0.1,0-0.2,0
	l-0.9-0.5c-0.2-0.1-0.3-0.4-0.2-0.6s0.4-0.3,0.6-0.2l0.9,0.5c0.2,0.1,0.3,0.4,0.2,0.6C7.4,27.1,7.2,27.2,7,27.2L7,27.2z M19.2,27.2
	c-0.1,0-0.1,0-0.2,0l-0.9-0.5c-0.2-0.1-0.3-0.4-0.2-0.6c0.1-0.2,0.4-0.3,0.6-0.2l0.9,0.5c0.2,0.1,0.3,0.4,0.2,0.6
	C19.5,27.1,19.4,27.2,19.2,27.2L19.2,27.2z M19.2,27.2c-0.2,0-0.3-0.1-0.4-0.3c-0.1-0.2,0-0.5,0.2-0.6l0.9-0.5
	c0.2-0.1,0.5,0,0.6,0.2s0,0.5-0.2,0.6l-0.9,0.5C19.3,27.2,19.3,27.2,19.2,27.2L19.2,27.2z M21.1,27.2c-0.2,0-0.3-0.1-0.4-0.3
	c-0.1-0.2,0-0.5,0.2-0.6l0.9-0.5c0.2-0.1,0.5,0,0.6,0.2c0.1,0.2,0,0.5-0.2,0.6l-0.9,0.5C21.2,27.2,21.1,27.2,21.1,27.2L21.1,27.2z
	 M21.1,27.2c-0.1,0-0.1,0-0.2,0l-0.9-0.5c-0.2-0.1-0.3-0.4-0.2-0.6c0.1-0.2,0.4-0.3,0.6-0.2l0.9,0.5c0.2,0.1,0.3,0.4,0.2,0.6
	C21.4,27.1,21.2,27.2,21.1,27.2L21.1,27.2z M8.4,13.6c-0.1,0-0.2,0-0.3-0.1C8,13.4,8,13.3,8,13.1v-0.5l-4.7,0
	c-0.3,0-0.5-0.2-0.5-0.5V0.5C2.8,0.2,3,0,3.3,0h12.2c0.3,0,0.5,0.2,0.5,0.5v11.7c0,0.3-0.2,0.5-0.5,0.5h-4.6l-2.3,0.9
	C8.5,13.6,8.5,13.6,8.4,13.6L8.4,13.6z M3.7,11.7h4.7c0.3,0,0.5,0.2,0.5,0.5v0.2l1.7-0.7c0.1,0,0.1,0,0.2,0H15V0.9H3.7L3.7,11.7z
	 M20.6,12.2c-0.1,0-0.1,0-0.2,0l-2.3-0.9h-2.7c-0.3,0-0.5-0.2-0.5-0.5c0-0.3,0.2-0.5,0.5-0.5h2.8c0.1,0,0.1,0,0.2,0l1.7,0.7v-0.2
	c0-0.3,0.2-0.5,0.5-0.5h0.9V2.8h-6.1c-0.3,0-0.5-0.2-0.5-0.5c0-0.3,0.2-0.5,0.5-0.5H22c0.3,0,0.5,0.2,0.5,0.5v8.4
	c0,0.3-0.2,0.5-0.5,0.5h-0.9v0.5c0,0.2-0.1,0.3-0.2,0.4C20.8,12.2,20.7,12.2,20.6,12.2L20.6,12.2z M19.2,23.9c-0.1,0-0.2,0-0.3-0.1
	c-0.2-0.2-0.2-0.5,0-0.7l0.5-0.5c0.2-0.2,0.5-0.2,0.7,0c0.2,0.2,0.2,0.5,0,0.7l-0.5,0.5C19.4,23.9,19.3,23.9,19.2,23.9L19.2,23.9z
	 M20.6,23.4h-0.9c-0.3,0-0.5-0.2-0.5-0.5c0-0.3,0.2-0.5,0.5-0.5h0.9c0.3,0,0.5,0.2,0.5,0.5C21.1,23.2,20.9,23.4,20.6,23.4z
	 M21.1,23.9c-0.1,0-0.2,0-0.3-0.1l-0.5-0.5c-0.2-0.2-0.2-0.5,0-0.7c0.2-0.2,0.5-0.2,0.7,0l0.5,0.5c0.2,0.2,0.2,0.5,0,0.7
	C21.3,23.9,21.2,23.9,21.1,23.9L21.1,23.9z M19.2,23.9c-1.6,0-2.8-1.3-2.8-2.8c0-0.3,0.2-0.5,0.5-0.5c0.3,0,0.5,0.2,0.5,0.5
	c0,1,0.8,1.9,1.9,1.9c0.3,0,0.5,0.2,0.5,0.5C19.7,23.7,19.5,23.9,19.2,23.9L19.2,23.9z M16.9,21.6c-0.1,0-0.1,0-0.2,0L15.7,21
	c-0.2-0.1-0.3-0.4-0.2-0.6c0.1-0.2,0.4-0.3,0.6-0.2l0.9,0.5c0.2,0.1,0.3,0.4,0.2,0.6C17.2,21.5,17,21.6,16.9,21.6L16.9,21.6z
	 M21.1,23.9c-0.3,0-0.5-0.2-0.5-0.5c0-0.3,0.2-0.5,0.5-0.5c1,0,1.9-0.8,1.9-1.9c0-0.3,0.2-0.5,0.5-0.5c0.3,0,0.5,0.2,0.5,0.5
	C23.9,22.6,22.6,23.9,21.1,23.9L21.1,23.9z M23.4,21.6c-0.2,0-0.3-0.1-0.4-0.3c-0.1-0.2,0-0.5,0.2-0.6l0.9-0.5
	c0.2-0.1,0.5,0,0.6,0.2c0.1,0.2,0,0.5-0.2,0.6l-0.9,0.5C23.6,21.5,23.5,21.6,23.4,21.6L23.4,21.6z M12.6,8.4H6.1
	C5.8,8.4,5.6,8.2,5.6,8V6.1c0-0.3,0.2-0.5,0.5-0.5h6.6c0.3,0,0.5,0.2,0.5,0.5V8C13.1,8.2,12.9,8.4,12.6,8.4L12.6,8.4z M6.6,7.5h5.6
	V6.6H6.6L6.6,7.5z M8,9.8H6.1c-0.3,0-0.5-0.2-0.5-0.5V8c0-0.3,0.2-0.5,0.5-0.5H8c0.3,0,0.5,0.2,0.5,0.5v1.4C8.4,9.6,8.2,9.8,8,9.8z
	 M6.6,8.9h0.9V8.4H6.6V8.9z M12.6,9.8h-1.9c-0.3,0-0.5-0.2-0.5-0.5V8c0-0.3,0.2-0.5,0.5-0.5h1.9c0.3,0,0.5,0.2,0.5,0.5v1.4
	C13.1,9.6,12.9,9.8,12.6,9.8z M11.2,8.9h0.9V8.4l-0.9,0V8.9z M12.2,4.7c-0.3,0-0.5-0.2-0.5-0.5c0-0.3-0.2-0.5-0.5-0.5H7.5
	C7.2,3.8,7,4,7,4.2c0,0.3-0.2,0.5-0.5,0.5c-0.3,0-0.5-0.2-0.5-0.5c0-0.8,0.6-1.4,1.4-1.4h3.8c0.8,0,1.4,0.6,1.4,1.4
	C12.6,4.5,12.4,4.7,12.2,4.7L12.2,4.7z M6.6,6.6c-0.3,0-0.5-0.2-0.5-0.5V4.2c0-0.3,0.2-0.5,0.5-0.5C6.8,3.8,7,4,7,4.2v1.9
	C7,6.4,6.8,6.6,6.6,6.6z M12.2,6.6c-0.3,0-0.5-0.2-0.5-0.5l0-1.9c0-0.3,0.2-0.5,0.5-0.5c0.3,0,0.5,0.2,0.5,0.5v1.9
	C12.6,6.4,12.4,6.6,12.2,6.6z M7.5,7.5C7.2,7.5,7,7.3,7,7c0-0.3,0.2-0.5,0.5-0.5h0C7.8,6.6,8,6.8,8,7C8,7.3,7.8,7.5,7.5,7.5L7.5,7.5
	z M11.3,7.5c-0.3,0-0.5-0.2-0.5-0.5c0-0.3,0.2-0.5,0.5-0.5h0c0.3,0,0.5,0.2,0.5,0.5C11.7,7.3,11.5,7.5,11.3,7.5L11.3,7.5z"/>
</svg>
