<?xml version="1.0" encoding="utf-8"?>
<!-- Generator: Adobe Illustrator 26.0.1, SVG Export Plug-In . SVG Version: 6.00 Build 0)  -->
<svg version="1.1" id="Layer_1" xmlns="http://www.w3.org/2000/svg" xmlns:xlink="http://www.w3.org/1999/xlink" x="0px" y="0px"
	 viewBox="0 0 31.1 30" style="enable-background:new 0 0 31.1 30;" xml:space="preserve">
<path d="M30.8,2.9h-1.2V0.8c0,0,0,0,0,0c0,0,0,0,0-0.1c0,0,0,0,0-0.1c0,0,0,0,0,0c0,0,0,0,0,0c0,0,0,0,0,0c0,0,0,0-0.1,0
	c0,0,0,0,0,0C29,0.4,21.2-1.5,15.5,2.8C9.9-1.5,2.1,0.4,1.7,0.5c0,0,0,0,0,0c0,0,0,0-0.1,0c0,0,0,0,0,0c0,0,0,0,0,0c0,0,0,0,0,0
	c0,0,0,0,0,0.1c0,0,0,0,0,0.1c0,0,0,0,0,0v2.1H0.3C0.1,2.9,0,3,0,3.2v20.3c0,0.2,0.1,0.3,0.3,0.3h4.9c2,3.7,5.9,6.1,10.3,6.1
	s8.3-2.5,10.3-6.1h4.9c0.2,0,0.3-0.1,0.3-0.3V3.2C31.1,3,31,2.9,30.8,2.9L30.8,2.9z M29,1v20.6c-0.1,0-0.1,0-0.2,0
	c-0.4-0.1-1.1-0.2-1.9-0.3c0.3-1,0.4-2,0.4-3.1c0-6.4-5.1-11.6-11.5-11.8V3.4C20.7-0.4,27.6,0.8,29,1L29,1z M15.2,3.4v3.1
	C8.9,6.6,3.8,11.8,3.8,18.2c0,1.1,0.2,2.1,0.4,3.1c-0.8,0.1-1.4,0.2-1.9,0.3c-0.1,0-0.1,0-0.2,0L2.1,1C3.5,0.8,10.4-0.4,15.2,3.4
	L15.2,3.4z M0.6,23.2V3.5h0.9V22c0,0.2,0.1,0.3,0.3,0.3c0.1,0,0.3,0,0.6-0.1c0.4-0.1,1.1-0.2,1.9-0.3c0.1,0.4,0.3,0.8,0.5,1.2
	L0.6,23.2z M15.5,29.4c-6.1,0-11.1-5-11.1-11.1s5-11.1,11.1-11.1h0h0c6.1,0,11.1,5,11.1,11.1C26.7,24.4,21.7,29.4,15.5,29.4
	L15.5,29.4z M26.7,22c0.8,0.1,1.5,0.2,1.9,0.3c0.3,0.1,0.5,0.1,0.6,0.1c0.2,0,0.3-0.1,0.3-0.3V3.5h0.9v19.7h-4.2
	C26.4,22.8,26.6,22.4,26.7,22L26.7,22z M20.7,17.4C22,17.7,23,18,23.8,18c0.5,0,0.9-0.1,1.1-0.4c0.4-0.4,0.5-1.2,0.2-2.3
	c0,0,0,0,0,0c0,0,0,0,0,0c-1.3-4.2-5.2-7.1-9.6-7.1h0c-4.4,0-8.3,2.8-9.6,7.1c0,0,0,0,0,0c0,0,0,0,0,0c-0.3,1.1-0.2,1.9,0.2,2.3
	C6.4,17.9,6.8,18,7.3,18c0.8,0,1.8-0.3,3.1-0.6c1.6-0.4,3.4-1,5.2-1h0C17.3,16.4,19.1,16.9,20.7,17.4L20.7,17.4z M10.2,16.8
	c-1.6,0.4-3.1,0.9-3.6,0.4c-0.2-0.2-0.2-0.8,0-1.7c0,0,0,0,0,0c1.2-3.9,4.8-6.6,9-6.6c4.1,0,7.7,2.6,9,6.6c0,0,0,0,0,0
	c0.2,0.8,0.2,1.4,0,1.7c-0.5,0.5-2,0-3.6-0.4c-1.6-0.5-3.5-1-5.4-1h0C13.7,15.8,11.8,16.3,10.2,16.8L10.2,16.8z M25.3,20.8
	C25.3,20.7,25.2,20.7,25.3,20.8c0-0.1,0-0.1,0-0.1c0,0,0,0,0-0.1c0,0,0,0,0,0c0,0,0,0-0.1,0s0,0-0.1,0c-1.9-0.6-4.1-0.3-5.6,0.8
	c-1.5,1.1-2.4,2.9-2.4,5.1v1.4c0,0,0,0,0,0c0,0,0,0,0,0c0,0,0,0,0,0c0,0,0,0,0,0c0,0,0,0,0,0.1c0,0,0,0,0,0c0,0,0,0,0.1,0
	c0,0,0,0,0,0c0,0,0.1,0,0.1,0c0,0,0,0,0.1,0c3.4-0.6,6.3-3,7.5-6.2c0,0,0,0,0,0c0.1-0.3,0.2-0.7,0.3-1
	C25.3,20.8,25.3,20.8,25.3,20.8C25.3,20.8,25.3,20.8,25.3,20.8L25.3,20.8z M17.7,27.4v-1c0-2.5,1.2-3.9,2.1-4.6
	c1.3-1,3.1-1.3,4.7-0.8c-0.1,0.2-0.1,0.5-0.2,0.7v0C23.2,24.6,20.7,26.7,17.7,27.4L17.7,27.4z M11.7,21.3c-1.6-1.1-3.7-1.4-5.7-0.8
	c0,0,0,0,0,0c0,0,0,0-0.1,0c0,0,0,0,0,0c0,0,0,0,0,0.1c0,0,0,0,0,0c0,0,0,0.1,0,0.1c0,0,0,0,0,0c0,0,0,0.1,0,0.1
	c0.1,0.4,0.2,0.7,0.3,1v0c1.3,3.2,4.2,5.6,7.6,6.2c0,0,0,0,0.1,0c0,0,0.1,0,0.1,0c0,0,0,0,0,0c0,0,0,0,0.1,0c0,0,0,0,0,0
	c0,0,0,0,0-0.1c0,0,0,0,0,0c0,0,0,0,0,0c0,0,0,0,0,0c0,0,0,0,0,0v-1.5C14.1,24.2,13.3,22.4,11.7,21.3L11.7,21.3z M13.5,27.5
	c-3-0.7-5.6-2.9-6.7-5.8c0,0,0,0,0,0c-0.1-0.2-0.2-0.4-0.2-0.7c1.6-0.5,3.5-0.2,4.8,0.8c1,0.7,2.1,2.1,2.1,4.6L13.5,27.5L13.5,27.5z
	"/>
</svg>
