<?xml version="1.0" encoding="utf-8"?>
<!-- Generator: Adobe Illustrator 26.0.1, SVG Export Plug-In . SVG Version: 6.00 Build 0)  -->
<svg version="1.1" id="Layer_1" xmlns="http://www.w3.org/2000/svg" xmlns:xlink="http://www.w3.org/1999/xlink" x="0px" y="0px"
	 viewBox="0 0 31.2 30" style="enable-background:new 0 0 31.2 30;" xml:space="preserve">
<path d="M28.3,25.4c-0.3,0-0.6,0.3-0.6,0.6v2.9H1.2V11.5h26.5v4c0,0.3,0.3,0.6,0.6,0.6s0.6-0.3,0.6-0.6V11l0-6.9
	c0-0.3-0.3-0.6-0.6-0.6h-5.8V0.6c0-0.3-0.3-0.6-0.6-0.6h-3.5c-0.3,0-0.6,0.3-0.6,0.6v2.9H11V0.6C11,0.3,10.7,0,10.4,0H6.9
	C6.6,0,6.3,0.3,6.3,0.6v2.9H0.6C0.3,3.5,0,3.7,0,4v25.4C0,29.7,0.3,30,0.6,30h27.7c0.3,0,0.6-0.3,0.6-0.6V26
	C28.8,25.6,28.6,25.4,28.3,25.4L28.3,25.4z M19,1.2h2.3v2.3H19V1.2z M7.5,1.2h2.3v2.3H7.5V1.2z M1.2,4.6h26.5v5.8H1.2V4.6z
	 M16.7,6.9h-4.6c-0.3,0-0.6,0.3-0.6,0.6s0.3,0.6,0.6,0.6h4.6c0.3,0,0.6-0.3,0.6-0.6S17,6.9,16.7,6.9z M8.7,6.9H4
	c-0.3,0-0.6,0.3-0.6,0.6S3.7,8.1,4,8.1h4.6c0.3,0,0.6-0.3,0.6-0.6C9.2,7.2,9,6.9,8.7,6.9z M24.8,6.9h-4.6c-0.3,0-0.6,0.3-0.6,0.6
	s0.3,0.6,0.6,0.6h4.6c0.3,0,0.6-0.3,0.6-0.6S25.1,6.9,24.8,6.9z M8.7,19c0.3,0,0.6-0.3,0.6-0.6v-4.6c0-0.3-0.3-0.6-0.6-0.6H4
	c-0.3,0-0.6,0.3-0.6,0.6v4.6C3.5,18.8,3.7,19,4,19H8.7z M4.6,14.4h3.5v3.5H4.6L4.6,14.4z M16.7,19c0.3,0,0.6-0.3,0.6-0.6v-4.6
	c0-0.3-0.3-0.6-0.6-0.6h-4.6c-0.3,0-0.6,0.3-0.6,0.6v4.6c0,0.3,0.3,0.6,0.6,0.6H16.7z M12.7,14.4h3.5v3.5h-3.5V14.4z M2.9,23.1
	c0,0.3,0.3,0.6,0.6,0.6H15c0.3,0,0.6-0.3,0.6-0.6s-0.3-0.6-0.6-0.6H3.5C3.1,22.5,2.9,22.8,2.9,23.1L2.9,23.1z M3.5,27.1h15
	c0.3,0,0.6-0.3,0.6-0.6S18.8,26,18.5,26h-15c-0.3,0-0.6,0.3-0.6,0.6C2.9,26.9,3.1,27.1,3.5,27.1z M31,22l-3.2-3.2l0.9-0.9
	c0.1-0.1,0.2-0.4,0.1-0.6c-0.1-0.2-0.2-0.4-0.4-0.4l-3.1-0.7v-2.4c0-0.3-0.3-0.6-0.6-0.6h-4.6c-0.3,0-0.6,0.3-0.6,0.6v4.6
	c0,0.3,0.3,0.6,0.6,0.6h2.4l0.7,3.1c0,0.2,0.2,0.4,0.4,0.4c0.1,0,0.1,0,0.2,0c0.2,0,0.3-0.1,0.4-0.2l0.9-0.9l3.2,3.2
	c0.1,0.1,0.3,0.2,0.4,0.2c0.2,0,0.3-0.1,0.4-0.2l1.8-1.8C31.2,22.6,31.2,22.3,31,22L31,22z M22.3,17.9h-1.5v-3.5h3.5V16l-1.6-0.4
	c-0.2,0-0.4,0-0.5,0.2c-0.1,0.1-0.2,0.3-0.2,0.5L22.3,17.9z M24.2,20.8l-0.9-3.9l3.9,0.9L24.2,20.8z M28.8,23.4L26,20.6l1-1l2.8,2.8
	L28.8,23.4z"/>
</svg>
