<svg version="1.1" id="Layer_1" xmlns="http://www.w3.org/2000/svg" xmlns:xlink="http://www.w3.org/1999/xlink" x="0px" y="0px" viewBox="0 0 20 20" style="enable-background:new 0 0 20 20;" xml:space="preserve"><path d="M13.8,0H6.2C2.8,0,0,2.8,0,6.2v7.5C0,17.2,2.8,20,6.2,20h7.5c3.5,0,6.2-2.8,6.2-6.2V6.2C20,2.8,17.2,0,13.8,0z M18.1,13.8 c0,2.4-2,4.4-4.4,4.4H6.2c-2.4,0-4.4-2-4.4-4.4V6.2c0-2.4,2-4.4,4.4-4.4h7.5c2.4,0,4.4,2,4.4,4.4V13.8z M10,5c-2.8,0-5,2.2-5,5 s2.2,5,5,5s5-2.2,5-5S12.8,5,10,5z M10,13.1c-1.7,0-3.1-1.4-3.1-3.1c0-1.7,1.4-3.1,3.1-3.1s3.1,1.4,3.1,3.1 C13.1,11.7,11.7,13.1,10,13.1z M15.4,4C15.7,4,16,4.3,16,4.6s-0.3,0.7-0.7,0.7S14.7,5,14.7,4.6S15,4,15.4,4z"></path></svg>