<?xml version="1.0" encoding="utf-8"?>
<!-- Generator: Adobe Illustrator 26.0.1, SVG Export Plug-In . SVG Version: 6.00 Build 0)  -->
<svg version="1.1" id="Layer_1" xmlns="http://www.w3.org/2000/svg" xmlns:xlink="http://www.w3.org/1999/xlink" x="0px" y="0px"
	 viewBox="0 0 24.2 30" style="enable-background:new 0 0 24.2 30;" xml:space="preserve">
<path d="M12.2,27.1H7c-0.2,0-0.4,0.2-0.4,0.4c0,0.2,0.2,0.4,0.4,0.4h5.2c0.2,0,0.4-0.2,0.4-0.4C12.6,27.3,12.4,27.1,12.2,27.1z
	 M9.8,2h1.8c0.2,0,0.4-0.2,0.4-0.4c0-0.2-0.2-0.4-0.4-0.4H9.8c-0.2,0-0.4,0.2-0.4,0.4C9.4,1.8,9.6,2,9.8,2z M8,2h0.5
	C8.8,2,9,1.8,9,1.6c0-0.2-0.2-0.4-0.4-0.4H8c-0.2,0-0.4,0.2-0.4,0.4C7.6,1.8,7.8,2,8,2z M22.2,7.5h-3V2.7C19.2,1.2,18,0,16.5,0
	L2.7,0C1.2,0,0,1.2,0,2.7l0,24.6C0,28.8,1.2,30,2.7,30h13.8c1.5,0,2.7-1.2,2.7-2.7l0-7.2h3c1.1,0,1.9-0.9,1.9-1.9V9.4
	C24.2,8.3,23.3,7.5,22.2,7.5L22.2,7.5z M23.4,9.4v0.7H8.6V8.3h13.6C22.9,8.3,23.4,8.8,23.4,9.4L23.4,9.4z M23.4,12.3H8.6V11h14.8
	V12.3z M11.1,7.5H8.6V7.2c0-0.7,0.6-1.2,1.2-1.2c0.3,0,0.6,0.1,0.9,0.4c0.2,0.2,0.4,0.5,0.4,0.9L11.1,7.5L11.1,7.5z M8.6,20.1h2.5
	v0.3c0,0.7-0.6,1.2-1.2,1.2c-0.7,0-1.2-0.6-1.2-1.2L8.6,20.1L8.6,20.1z M14,0.8l-0.9,1.6c-0.1,0.2-0.3,0.3-0.4,0.3L7,2.6
	c-0.2,0-0.4-0.1-0.4-0.3L5.7,0.8L14,0.8z M16.5,29.2H2.7c-1,0-1.9-0.8-1.9-1.9v-1.4h17.6v1.4C18.4,28.4,17.6,29.2,16.5,29.2
	L16.5,29.2z M18.4,25.1H0.8V2.7c0-1,0.8-1.9,1.9-1.9h2.1l1.1,2C6.1,3.2,6.5,3.4,7,3.4h5.7c0.5,0,0.9-0.3,1.1-0.7l1.1-2h1.6
	c1,0,1.9,0.8,1.9,1.9v4.8l-6.5,0V7.2c0-0.5-0.2-1.1-0.6-1.4c-0.4-0.4-0.9-0.6-1.4-0.6c-1.1,0-2,0.9-2,2v13.3c0,1.1,0.9,2,2,2
	s2-0.9,2-2v-0.3h6.5L18.4,25.1L18.4,25.1z M22.2,19.3H8.6l0-6.2h14.8v5.1C23.4,18.8,22.9,19.3,22.2,19.3L22.2,19.3z M21.3,15.9h-2.9
	c-0.2,0-0.4,0.2-0.4,0.4s0.2,0.4,0.4,0.4h2.9c0.2,0,0.4-0.2,0.4-0.4S21.5,15.9,21.3,15.9z M19.8,17.7h-1.5c-0.2,0-0.4,0.2-0.4,0.4
	s0.2,0.4,0.4,0.4h1.5c0.2,0,0.4-0.2,0.4-0.4S20.1,17.7,19.8,17.7z"/>
</svg>
