<?xml version="1.0" encoding="utf-8"?>
<!-- Generator: Adobe Illustrator 26.0.1, SVG Export Plug-In . SVG Version: 6.00 Build 0)  -->
<svg version="1.1" id="Layer_1" xmlns="http://www.w3.org/2000/svg" xmlns:xlink="http://www.w3.org/1999/xlink" x="0px" y="0px"
	 viewBox="0 0 26.4 30" style="enable-background:new 0 0 26.4 30;" xml:space="preserve">
<path d="M25.3,25l-6.8,3.9c-1.3,0.8-2.7,1.1-4.2,1.1c-0.3,0-0.6,0-1-0.1L7,29.3l-6,0.5l-0.1-1l6.1-0.5c0.1,0,0.1,0,0.1,0l6.3,0.7
	c1.6,0.2,3.2-0.2,4.6-1l6.8-3.9c0.2-0.1,0.4-0.4,0.5-0.6c0.1-0.3,0.1-0.5-0.1-0.8c-0.1-0.2-0.3-0.4-0.6-0.5
	c-0.3-0.1-0.5-0.1-0.8,0.1l-5.4,3.1c-0.4,0.2-0.8,0.3-1.2,0.3h-5.2v-1h5c0.4,0,0.7-0.2,0.9-0.5c0.2-0.3,0.2-0.7,0-1
	c-0.2-0.3-0.5-0.5-0.9-0.5h-3.5c-0.1,0-0.1,0-0.2-0.1l-1.6-0.6c-0.5-0.2-1.1-0.3-1.7-0.3H9.5c-0.8,0-1.6,0.2-2.3,0.6l-1.3,0.8l0,0
	c-0.1,0.1-0.2,0.1-0.3,0.1H1v-1h4.5l1.2-0.7c0.9-0.5,1.8-0.8,2.8-0.8h0.6c0.7,0,1.4,0.1,2,0.4l1.5,0.6H17c0.5,0,1,0.2,1.4,0.6
	c0.4,0.4,0.6,0.9,0.6,1.4c0,0.1,0,0.2,0,0.2l4.3-2.5c0.5-0.3,1-0.3,1.5-0.2c0.5,0.2,1,0.5,1.2,0.9c0.3,0.5,0.3,1,0.2,1.5
	C26.1,24.3,25.8,24.7,25.3,25L25.3,25z M26.3,15.4V7.9c0-0.1-0.1-0.3-0.2-0.4s-0.2-0.2-0.4-0.2H13.9v1h1v1h-2v1h2v5h-3.1
	c-0.1-0.3-0.3-0.6-0.5-0.9c-0.3-0.3-0.6-0.4-0.9-0.5v-1.6h-1v2c0,0.1,0.1,0.3,0.2,0.4c0.1,0.1,0.2,0.2,0.4,0.2
	c0.3,0,0.5,0.1,0.7,0.3c0.2,0.2,0.3,0.4,0.3,0.7c0,0.1,0.1,0.3,0.2,0.4c0.1,0.1,0.2,0.2,0.4,0.2h3.5v1H8.5V14h-1v5.9
	c0,0.1,0.1,0.3,0.2,0.4c0.1,0.1,0.2,0.2,0.4,0.2h17.9c0.1,0,0.3-0.1,0.4-0.2s0.2-0.2,0.2-0.4v-3.6h-1v1H19v-1h3.5
	c0.1,0,0.3-0.1,0.4-0.2c0.1-0.1,0.2-0.2,0.2-0.4c0-0.3,0.1-0.5,0.3-0.7c0.2-0.2,0.4-0.3,0.7-0.3c0.1,0,0.3-0.1,0.4-0.2
	c0.1-0.1,0.2-0.2,0.2-0.4v-3c0-0.1-0.1-0.3-0.2-0.4s-0.2-0.2-0.4-0.2c-0.3,0-0.5-0.1-0.7-0.3c-0.2-0.2-0.3-0.4-0.3-0.7
	c0-0.1-0.1-0.3-0.2-0.4c-0.1-0.1-0.2-0.2-0.4-0.2H19v-1h6.4v7L26.3,15.4z M14.8,19.3H8.4v-1h6.4V19.3z M17.8,19.3h-2V8.4h2V19.3z
	 M25.3,18.3v1h-6.4v-1H25.3z M21.9,10.4c0.1,0.3,0.3,0.6,0.5,0.9c0.3,0.3,0.6,0.4,0.9,0.5v2.1c-0.3,0.1-0.6,0.3-0.9,0.5
	c-0.3,0.3-0.4,0.6-0.5,0.9h-3.1v-5C18.8,10.4,21.9,10.4,21.9,10.4z M6.4,12.9c1.7,0,3.4-0.7,4.6-1.9c1.2-1.2,1.9-2.8,1.9-4.6
	S12.2,3.1,11,1.9C9.8,0.6,8.1,0,6.4,0S3.1,0.6,1.9,1.9C0.6,3.1,0,4.7,0,6.4S0.7,9.8,1.9,11C3.1,12.2,4.7,12.9,6.4,12.9L6.4,12.9z
	 M6.4,1c1.4,0,2.8,0.6,3.9,1.6s1.6,2.4,1.6,3.9s-0.6,2.8-1.6,3.9s-2.4,1.6-3.9,1.6s-2.8-0.6-3.9-1.6S1,7.9,1,6.4s0.6-2.8,1.6-3.9
	S5,1,6.4,1L6.4,1z M3.6,8.5l4.9-4.9l0.7,0.7L4.3,9.2L3.6,8.5z M7.5,7.5C7.2,7.8,7.1,8.1,7.1,8.6c0,0.4,0.2,0.8,0.4,1.1
	c0.3,0.3,0.6,0.4,1.1,0.4c0.4,0,0.8-0.2,1.1-0.4c0.3-0.3,0.4-0.6,0.4-1.1c0-0.4-0.2-0.8-0.4-1.1C9.4,7.2,9,7.1,8.6,7.1
	S7.8,7.2,7.5,7.5L7.5,7.5z M8.9,8.9C8.7,9.1,8.5,9.1,8.4,9C8.2,8.9,8,8.7,8,8.5S8.1,8.1,8.4,8C8.5,8,8.7,8,8.9,8.1
	C9,8.3,9.1,8.4,9.1,8.5C9,8.7,8.9,8.8,8.9,8.9L8.9,8.9z M4.3,5.8c0.5,0,0.9-0.2,1.2-0.6C5.8,4.9,5.9,4.4,5.8,4
	c-0.2-0.5-0.5-0.9-0.9-1C4.4,2.8,4,2.8,3.5,3.1C3.2,3.3,2.8,3.7,2.8,4.1C2.7,4.6,2.9,5,3.2,5.4C3.5,5.7,3.9,5.8,4.3,5.8L4.3,5.8z
	 M4,4c0.2-0.2,0.4-0.2,0.5-0.1C4.7,4,4.8,4.1,4.8,4.3c0,0.2-0.1,0.4-0.3,0.5C4.3,4.9,4.1,4.9,4,4.7C3.9,4.6,3.8,4.5,3.8,4.3
	C3.8,4.2,3.9,4.1,4,4L4,4z"/>
</svg>
