<?xml version="1.0" encoding="utf-8"?>
<!-- Generator: Adobe Illustrator 26.0.1, SVG Export Plug-In . SVG Version: 6.00 Build 0)  -->
<svg version="1.1" id="Layer_1" xmlns="http://www.w3.org/2000/svg" xmlns:xlink="http://www.w3.org/1999/xlink" x="0px" y="0px"
	 viewBox="0 0 60.2 68" style="enable-background:new 0 0 60.2 68;" xml:space="preserve">
<path d="M15.4,0c0,0-0.1,0-0.1,0c-0.5,0.1-0.8,0.5-0.8,1v2.9h-1.9c-2.7,0-4.9,2.2-4.9,4.9v4.1C3.3,13.8,0,17.7,0,22.4
	c0,4.3,2.8,7.9,6.7,9.2C2.8,32.9,0,36.5,0,40.8V67c0,0.5,0.4,1,1,1h17.5c0.5,0,1-0.4,1-1V45.4c1-0.3,12.1-3.3,16.8-4.6
	c1.1-0.3,2.2-0.8,3.1-1.6c0.1-0.1,0.2-0.2,0.3-0.3h15.7c2.7,0,4.9-2.2,4.9-4.9V8.8c0-2.7-2.2-4.9-4.9-4.9h-1.9V1
	c0-0.3-0.1-0.6-0.4-0.8C52.8,0,52.5,0,52.2,0c-0.5,0.1-0.8,0.5-0.8,1v2.9h-35V1c0-0.3-0.1-0.5-0.3-0.7C16,0.1,15.7,0,15.4,0L15.4,0z
	 M12.6,5.9h42.7c1.6,0,2.9,1.3,2.9,2.9V34c0,1.6-1.3,2.9-2.9,2.9H40.7c0.1-0.3,0.1-0.6,0.1-1c0-2.7-2.2-4.9-4.9-4.9h-22
	c3.3-1.6,5.5-4.9,5.5-8.7c0-5.4-4.4-9.7-9.7-9.7V8.8C9.7,7.1,11,5.9,12.6,5.9L12.6,5.9z M9.7,14.6c4.3,0,7.8,3.5,7.8,7.8
	s-3.5,7.8-7.8,7.8s-7.8-3.5-7.8-7.8S5.4,14.6,9.7,14.6z M47.3,31.1c-0.3,0-0.5,0.2-0.6,0.4c-0.2,0.2-0.2,0.5-0.2,0.7
	c0.1,0.5,0.6,0.9,1.1,0.8h5.8c0.3,0,0.5-0.1,0.7-0.3c0.2-0.2,0.3-0.4,0.3-0.7c0-0.3-0.1-0.5-0.3-0.7c-0.2-0.2-0.4-0.3-0.7-0.3h-5.8
	C47.5,31.1,47.5,31.1,47.3,31.1C47.4,31.1,47.3,31.1,47.3,31.1L47.3,31.1z M9.7,33h26.2c1.6,0,2.9,1.3,2.9,2.9
	c0,0.8-0.3,1.3-0.8,1.8c-0.5,0.5-1.4,0.9-2.3,1.1v0c-4.9,1.4-17.5,4.8-17.5,4.8c-0.4,0.1-0.7,0.5-0.7,0.9v21.4H1.9V40.8
	C1.9,36.5,5.4,33,9.7,33L9.7,33z"/>
</svg>
