<?xml version="1.0" encoding="utf-8"?>
<!-- Generator: Adobe Illustrator 26.0.1, SVG Export Plug-In . SVG Version: 6.00 Build 0)  -->
<svg version="1.1" id="Layer_1" xmlns="http://www.w3.org/2000/svg" xmlns:xlink="http://www.w3.org/1999/xlink" x="0px" y="0px"
	 viewBox="0 0 21.8 30" style="enable-background:new 0 0 21.8 30;" xml:space="preserve">
<path d="M21.8,14.1c-0.2-0.5-0.3-0.8-0.6-1.1c-0.1-0.1-0.3-0.2-0.4-0.3c-0.1,0-0.2-0.1-0.2-0.1c0,0,0,0,0,0c-0.1,0-0.2,0-0.3-0.1
	c0,0,0,0,0,0c-0.1,0-0.2,0-0.2,0h-0.7v-1.3h0c0-1.3,0.1-2.6,0-3.9C18.8,4,16.2,1,12.8,0.2c-0.5-0.1-0.9-0.2-1.4-0.2h-1.1
	c-0.2,0-0.5,0.1-0.7,0.1c-3.9,0.6-7,4.1-7,8c0,0.9,0,1.8,0,2.6h0v1.8H2c-0.1,0-0.2,0-0.2,0c0,0,0,0,0,0c-0.1,0-0.2,0-0.3,0.1
	c0,0,0,0,0,0c-0.1,0-0.2,0.1-0.3,0.1c-0.2,0.1-0.3,0.2-0.4,0.3c-0.3,0.2-0.5,0.6-0.6,1.1c0,0,0,0,0,0c0,0.1,0,0.2,0,0.3v13.7
	c0,0.1,0,0.2,0,0.4c0,0.1,0.1,0.2,0.1,0.3c0.2,0.6,0.6,1,1.2,1.1c0,0,0.1,0,0.1,0c0.1,0,0.2,0,0.4,0H20c0.1,0,0.2,0,0.4,0
	c0.1,0,0.2-0.1,0.3-0.1c0.6-0.2,0.9-0.6,1.1-1.2c0,0,0-0.1,0-0.1c0-0.1,0-0.2,0-0.3C21.8,23.5,21.8,18.8,21.8,14.1L21.8,14.1z
	 M12.1,22c-0.2,0.1-0.2,0.2-0.2,0.4c0,0.9,0,1.8,0,2.6c0,0,0,0,0,0c0,0.6-0.5,1-1,1c-0.6,0-1-0.5-1-1c0,0,0,0,0,0c0-0.9,0-1.8,0-2.6
	c0-0.2,0-0.3-0.2-0.4c-0.8-0.6-1.1-1.6-0.7-2.5c0.4-0.9,1.3-1.4,2.2-1.2c1,0.2,1.7,1,1.7,2C12.9,21,12.7,21.6,12.1,22L12.1,22z
	 M15.6,11.3L15.6,11.3L15.6,11.3v0.4v0.9H6.2v-0.9c0,0,0-0.1,0-0.2c0-0.7,0-1.4,0-2.1c0-0.6,0-1.2,0.1-1.8c0.4-2.4,2.6-4.1,5-4
	c2.4,0.2,4.3,2.2,4.4,4.6C15.6,9.2,15.6,10.2,15.6,11.3L15.6,11.3z"/>
</svg>
