<svg version="1.1" id="Layer_1" xmlns="http://www.w3.org/2000/svg" xmlns:xlink="http://www.w3.org/1999/xlink" x="0px" y="0px" viewBox="0 0 66.6 57" style="enable-background:new 0 0 66.6 57;" xml:space="preserve"><path d="M23.2,51c-0.2,0.4-0.5,0.9-0.8,1.3l-0.1,0.2H1.1C0.5,52.5,0,52,0,51.4c0-0.6,0.5-1.1,1.1-1.1h22.5L23.2,51z M65.5,50.4H43.7 l0.3,0.7c0.2,0.4,0.5,0.8,0.8,1.3l0.1,0.2h20.6c0.6,0,1.1-0.5,1.1-1.1C66.6,50.8,66.1,50.4,65.5,50.4z M6.6,5.8c-0.6,0-1,0.5-1,1 c0,0.6,0.5,1,1,1s1-0.5,1-1C7.6,6.3,7.1,5.8,6.6,5.8z M10.8,6.8c0-0.6-0.5-1-1-1c-0.6,0-1,0.5-1,1c0,0.6,0.5,1,1,1 C10.3,7.8,10.8,7.4,10.8,6.8z M12.9,7.8c0.6,0,1-0.5,1-1c0-0.6-0.5-1-1-1c-0.6,0-1,0.5-1,1C11.9,7.4,12.3,7.8,12.9,7.8z M66.6,4.3 v36.9c0,2.4-1.9,4.3-4.3,4.3h-22l0.1,0.6c0.3,3,1.4,5.8,3.1,8.1l0.8,1.1c0.2,0.3,0.3,0.7,0.1,1.1c-0.2,0.4-0.5,0.6-0.9,0.6H23.8 c-0.4,0-0.8-0.2-0.9-0.6c-0.2-0.4-0.1-0.8,0.1-1.1l0.8-1.1c1.8-2.4,2.8-5.2,3.1-8.1l0.1-0.6H4.3c-2.4,0-4.3-1.9-4.3-4.3V4.3 C0,1.9,1.9,0,4.3,0h58C64.7,0,66.6,1.9,66.6,4.3z M38.2,45.9l0-0.5h-9.1l0,0.5c-0.2,2.9-1.2,5.7-2.7,8.1l-0.5,0.8h15.5l-0.5-0.8 C39.4,51.6,38.5,48.8,38.2,45.9z M64.5,4.3c0-1.2-1-2.1-2.1-2.1h-58c-1.2,0-2.1,1-2.1,2.1v36.9c0,1.2,1,2.1,2.1,2.1h58 c1.2,0,2.1-1,2.1-2.1V4.3z M56.9,16.7c0,0.4-0.2,0.8-0.6,1L50,20.6v4.9c0,0.4-0.2,0.8-0.6,1l-7.7,3.6c-0.1,0-0.2,0.1-0.3,0.1V32 c0,1.9-1.5,3.4-3.4,3.4h-0.9c-0.4,1.8-2,3.2-3.9,3.2c-1.9,0-3.5-1.3-3.9-3.2h-7.2c-0.4,1.8-2,3.2-3.9,3.2c-1.9,0-3.5-1.3-3.9-3.2H11 c-0.8,0-1.4-0.6-1.4-1.4v-3.5c0-1.9,1.5-3.4,3.4-3.4h3.9c0.6-0.6,1.2-1.3,1.7-2c1.4-1.7,2.8-3.4,5.4-3.4h7.9c0.2,0,0.3,0,0.5,0v-1.1 l-6.3-2.9c-0.4-0.2-0.6-0.6-0.6-1c0-0.4,0.2-0.8,0.6-1l14.6-6.9c0.1-0.1,0.3-0.1,0.5-0.1c0.2,0,0.3,0,0.5,0.1l14.6,6.9 C56.6,15.9,56.9,16.3,56.9,16.7z M36.4,27.1l-1.3-2c-0.7-1.1-1.9-1.8-3.2-1.8h-3.5v3.8H36.4z M26.9,27.1v-3.8H24 c-1.9,0-2.8,1.1-3.9,2.5c-0.4,0.4-0.7,0.9-1.1,1.3H26.9z M35.6,34.7C35.6,34.7,35.6,34.7,35.6,34.7c0-1.3-1.1-2.4-2.4-2.4 c-1.3,0-2.4,1.1-2.4,2.4c0,1.3,1.1,2.4,2.4,2.4C34.5,37,35.6,36,35.6,34.7L35.6,34.7L35.6,34.7z M15.9,34.7L15.9,34.7 c0,1.3,1.1,2.4,2.4,2.4c1.3,0,2.4-1.1,2.4-2.4c0-1.3-1.1-2.4-2.4-2.4C17,32.3,15.9,33.4,15.9,34.7L15.9,34.7z M11.1,33.9h3.3 c0.4-1.8,2-3.2,3.9-3.2c1.9,0,3.5,1.3,3.9,3.2h7.2c0.4-1.8,2-3.2,3.9-3.2c1.9,0,3.5,1.3,3.9,3.2h0.9c1,0,1.8-0.8,1.8-1.8l0-3.4H13 c-1,0-1.8,0.8-1.8,1.8L11.1,33.9z M53.3,16.7L41.2,11l-12.1,5.7l4.4,2.1l7.3-3.5c0.5-0.3,1.2,0,1.4,0.5c0.3,0.5,0,1.2-0.5,1.4 l-7.1,3.5v1.8c0.8,0.4,1.4,1,1.9,1.8l1.8,2.9l2.3,0c0.4,0,0.8,0.4,0.8,0.8v0l6.5-3.1v-3.2l-6.2,2.9c-0.3,0.1-0.6,0.1-0.9,0l-3.6-1.7 v-0.6l1.8-0.9l2.2,1L53.3,16.7z"/></svg>