<?xml version="1.0" encoding="utf-8"?>
<!-- Generator: Adobe Illustrator 26.0.1, SVG Export Plug-In . SVG Version: 6.00 Build 0)  -->
<svg version="1.1" id="Layer_1" xmlns="http://www.w3.org/2000/svg" xmlns:xlink="http://www.w3.org/1999/xlink" x="0px" y="0px"
	 viewBox="0 0 135.9 16" style="enable-background:new 0 0 135.9 16;" xml:space="preserve">
<path d="M15.8,5.5c0.1,0.2,0.1,0.4,0.1,0.6c0,0.2-0.1,0.4-0.3,0.5v0l-3,3l1.3,5.1c0.1,0.3,0,0.5-0.1,0.7c-0.1,0.2-0.3,0.4-0.6,0.5
	c-0.3,0.1-0.5,0-0.7-0.1l-4.4-2.5l-4.4,2.5C3.3,16,3,16,2.8,16c-0.3-0.1-0.5-0.2-0.6-0.5C2,15.3,2,15,2.1,14.8l1.3-5.1l-3-3
	C0.1,6.4,0,6.2,0,5.9c0-0.3,0.1-0.5,0.3-0.7C0.5,5,0.7,4.9,1,4.9h0h4.2L7,0.6c0.1-0.2,0.3-0.4,0.5-0.5C7.8,0,8.1,0,8.3,0.1
	c0.2,0.1,0.4,0.3,0.5,0.5l1.9,4.3h4.2c0.2,0,0.4,0.1,0.5,0.2C15.6,5.2,15.7,5.4,15.8,5.5L15.8,5.5z M45.8,5.5
	c-0.1-0.2-0.2-0.3-0.4-0.4c-0.2-0.1-0.4-0.2-0.5-0.2h-4.2l-1.9-4.3c-0.1-0.2-0.3-0.4-0.5-0.5c-0.2-0.1-0.5-0.1-0.8,0
	c-0.2,0.1-0.4,0.3-0.5,0.5l-1.9,4.3H31h0c-0.3,0-0.5,0.1-0.7,0.3C30.1,5.4,30,5.7,30,5.9c0,0.3,0.1,0.5,0.3,0.7l3,3l-1.3,5.1
	c-0.1,0.3,0,0.5,0.1,0.7c0.1,0.2,0.3,0.4,0.6,0.5c0.3,0.1,0.5,0,0.7-0.1l4.4-2.5l4.4,2.5c0.2,0.1,0.5,0.2,0.7,0.1
	c0.3-0.1,0.5-0.2,0.6-0.5c0.1-0.2,0.2-0.5,0.1-0.7l-1.3-5.1l3-3v0c0.1-0.1,0.2-0.3,0.3-0.5C45.9,5.9,45.9,5.7,45.8,5.5L45.8,5.5z
	 M75.8,5.5c-0.1-0.2-0.2-0.3-0.4-0.4c-0.2-0.1-0.4-0.2-0.5-0.2h-4.2l-1.9-4.3c-0.1-0.2-0.3-0.4-0.5-0.5c-0.2-0.1-0.5-0.1-0.8,0
	c-0.2,0.1-0.4,0.3-0.5,0.5l-1.9,4.3H61h0c-0.3,0-0.5,0.1-0.7,0.3C60.1,5.4,60,5.7,60,5.9c0,0.3,0.1,0.5,0.3,0.7l3,3l-1.3,5.1
	c-0.1,0.3,0,0.5,0.1,0.7c0.1,0.2,0.3,0.4,0.6,0.5c0.3,0.1,0.5,0,0.7-0.1l4.4-2.5l4.4,2.5c0.2,0.1,0.5,0.2,0.7,0.1
	c0.3-0.1,0.5-0.2,0.6-0.5c0.1-0.2,0.2-0.5,0.1-0.7l-1.3-5.1l3-3v0c0.1-0.1,0.2-0.3,0.3-0.5C75.9,5.9,75.9,5.7,75.8,5.5L75.8,5.5z
	 M105.8,5.5c-0.1-0.2-0.2-0.3-0.4-0.4c-0.2-0.1-0.4-0.2-0.5-0.2h-4.2l-1.9-4.3c-0.1-0.2-0.3-0.4-0.5-0.5c-0.2-0.1-0.5-0.1-0.8,0
	c-0.2,0.1-0.4,0.3-0.5,0.5l-1.9,4.3H91h0c-0.3,0-0.5,0.1-0.7,0.3C90.1,5.4,90,5.7,90,5.9c0,0.3,0.1,0.5,0.3,0.7l3,3l-1.3,5.1
	c-0.1,0.3,0,0.5,0.1,0.7c0.1,0.2,0.3,0.4,0.6,0.5c0.3,0.1,0.5,0,0.7-0.1l4.4-2.5l4.4,2.5c0.2,0.1,0.5,0.2,0.7,0.1
	c0.3-0.1,0.5-0.2,0.6-0.5c0.1-0.2,0.2-0.5,0.1-0.7l-1.3-5.1l3-3v0c0.1-0.1,0.2-0.3,0.3-0.5C105.9,5.9,105.9,5.7,105.8,5.5L105.8,5.5
	z M135.8,5.5c-0.1-0.2-0.2-0.3-0.4-0.4c-0.2-0.1-0.4-0.2-0.5-0.2h-4.2l-1.9-4.3c-0.1-0.2-0.3-0.4-0.5-0.5c-0.2-0.1-0.5-0.1-0.8,0
	c-0.2,0.1-0.4,0.3-0.5,0.5l-1.9,4.3H121h0c-0.3,0-0.5,0.1-0.7,0.3c-0.2,0.2-0.3,0.4-0.3,0.7c0,0.3,0.1,0.5,0.3,0.7l3,3l-1.3,5.1
	c-0.1,0.3,0,0.5,0.1,0.7c0.1,0.2,0.3,0.4,0.6,0.5c0.3,0.1,0.5,0,0.7-0.1l4.4-2.5l4.4,2.5c0.2,0.1,0.5,0.2,0.7,0.1
	c0.3-0.1,0.5-0.2,0.6-0.5c0.1-0.2,0.2-0.5,0.1-0.7l-1.3-5.1l3-3v0c0.1-0.1,0.2-0.3,0.3-0.5C135.9,5.9,135.9,5.7,135.8,5.5L135.8,5.5
	z"/>
</svg>
