<svg version="1.1" id="Layer_1" xmlns="http://www.w3.org/2000/svg" xmlns:xlink="http://www.w3.org/1999/xlink" x="0px" y="0px" viewBox="0 0 24.4 20" style="enable-background:new 0 0 24.4 20;" xml:space="preserve"><path d="M9.1,20c-1.1,0-2.1-0.1-3.2-0.3C4,19.4,2,18.4,1.4,18.1L0,17.3l1.6-0.5c1.7-0.6,2.8-0.9,4-1.5c-1.3-0.6-2.3-1.8-2.8-3.2 l-0.4-1.1l0.3,0c-0.3-0.3-0.5-0.6-0.7-0.8C1.5,9.3,1.2,8.2,1.2,7.2l0.1-1l0.6,0.2C1.6,6,1.5,5.5,1.3,5c-0.3-1.3,0-2.6,0.6-3.8 l0.5-0.9l0.7,0.8c2.1,2.6,4.8,4.1,8,4.5c-0.1-0.9,0-1.8,0.3-2.6c0.4-0.9,1.1-1.7,1.9-2.2c1-0.6,2.2-0.9,3.4-0.8 c1.3,0.1,2.4,0.6,3.3,1.4c0.4-0.1,0.8-0.2,1.2-0.4c0.3-0.1,0.6-0.2,0.9-0.3l1.4-0.5l-0.9,2.6c0.1,0,0.1,0,0.2,0l1.5-0.1l-0.9,1.2 C23.5,3.9,23.5,4,23.5,4c-0.1,0.1-0.2,0.2-1.4,1.9c-0.3,0.4-0.5,0.9-0.4,1.5c0.1,2.1-0.2,4-0.8,5.6c-0.6,1.6-1.5,2.9-2.7,4 c-1.5,1.3-3.4,2.2-5.6,2.7C11.5,19.9,10.3,20,9.1,20z"></path></svg>